<svg width="19" height="19" viewBox="0 0 19 19" fill="none" xmlns="http://www.w3.org/2000/svg">
<path d="M10.4955 6.66113C10.4955 6.35047 10.2436 6.09863 9.93298 6.09863C9.62232 6.09863 9.37048 6.35047 9.37048 6.66113V9.28613H6.74548C6.43482 9.28613 6.18298 9.53797 6.18298 9.84863C6.18298 10.1593 6.43482 10.4111 6.74548 10.4111H9.37048V13.0361C9.37048 13.3468 9.62232 13.5986 9.93298 13.5986C10.2436 13.5986 10.4955 13.3468 10.4955 13.0361V10.4111H13.1205C13.4311 10.4111 13.683 10.1593 13.683 9.84863C13.683 9.53797 13.4311 9.28613 13.1205 9.28613H10.4955V6.66113Z" fill="#42B00F"/>
<path fill-rule="evenodd" clip-rule="evenodd" d="M9.93298 1.59863C5.37663 1.59863 1.68298 5.29228 1.68298 9.84863C1.68298 14.405 5.37663 18.0986 9.93298 18.0986C14.4893 18.0986 18.183 14.405 18.183 9.84863C18.183 5.29228 14.4893 1.59863 9.93298 1.59863ZM2.80798 9.84863C2.80798 5.9136 5.99795 2.72363 9.93298 2.72363C13.868 2.72363 17.058 5.9136 17.058 9.84863C17.058 13.7837 13.868 16.9736 9.93298 16.9736C5.99795 16.9736 2.80798 13.7837 2.80798 9.84863Z" fill="#42B00F"/>
</svg>
