<?xml version="1.0" standalone="no"?>
<!DOCTYPE svg PUBLIC "-//W3C//DTD SVG 20010904//EN"
 "http://www.w3.org/TR/2001/REC-SVG-20010904/DTD/svg10.dtd">
<svg version="1.0" xmlns="http://www.w3.org/2000/svg"
 width="1280.000000pt" height="1280.000000pt" viewBox="0 0 1280.000000 1280.000000"
 preserveAspectRatio="xMidYMid meet">

<g transform="translate(0.000000,1280.000000) scale(0.100000,-0.100000)"
fill="#000000" stroke="none">
<path d="M0 6400 l0 -6400 6400 0 6400 0 0 6400 0 6400 -6400 0 -6400 0 0
-6400z m8903 1358 c76 -19 93 -20 132 -10 106 28 148 8 205 -99 37 -71 51
-171 31 -231 -28 -84 -118 -120 -198 -79 -24 11 -63 48 -93 86 -29 36 -71 79
-94 94 -165 114 -355 58 -427 -125 -32 -84 -33 -245 0 -359 54 -194 180 -324
313 -325 64 0 94 13 118 52 26 43 26 98 -1 132 -17 22 -28 26 -70 26 -42 0
-55 5 -80 29 -34 34 -36 54 -10 97 42 68 248 108 453 87 176 -18 240 -49 254
-121 5 -26 1 -36 -24 -62 -17 -16 -40 -30 -52 -30 -40 0 -58 -19 -75 -77 -39
-136 -135 -247 -269 -313 -113 -56 -210 -74 -361 -67 -208 9 -346 67 -485 207
-131 130 -192 272 -193 450 -1 114 16 188 66 290 33 67 58 102 122 165 89 89
159 135 263 171 139 48 310 52 475 12z m-6485 13 c24 -5 53 -18 65 -29 12 -12
78 -125 147 -252 68 -127 133 -240 143 -251 22 -24 69 -25 90 -1 8 9 59 103
112 207 132 257 147 279 203 307 41 20 62 23 172 23 180 0 247 -25 265 -97 6
-22 0 -35 -38 -75 -24 -26 -49 -57 -55 -68 -44 -85 -45 -713 -1 -840 5 -16 30
-45 54 -63 54 -39 61 -78 19 -117 -39 -36 -113 -50 -279 -50 -182 0 -253 9
-297 38 -51 35 -49 68 6 127 55 59 61 84 61 262 0 115 -3 140 -17 154 -24 24
-61 11 -90 -33 -14 -21 -69 -135 -122 -253 -54 -118 -105 -223 -113 -232 -45
-50 -72 -10 -224 334 -45 101 -88 191 -97 201 -21 23 -59 22 -72 -3 -14 -27
-15 -372 -1 -398 6 -11 31 -32 56 -46 36 -22 45 -32 45 -55 0 -65 -78 -94
-255 -95 -102 0 -127 3 -167 21 -33 15 -49 29 -54 47 -9 37 0 53 45 76 80 40
85 64 102 456 16 372 2 489 -62 509 -42 14 -79 56 -79 90 0 58 58 90 195 108
57 7 200 6 243 -2z m8000 -41 c256 -98 426 -361 409 -631 -21 -326 -280 -586
-606 -606 -112 -7 -207 14 -319 68 -69 33 -102 58 -167 123 -130 131 -185 264
-185 446 0 121 20 202 72 303 90 173 272 304 457 331 119 17 238 5 339 -34z
m-4337 -262 c-3 -255 -2 -290 13 -313 21 -31 44 -32 104 -1 84 43 113 86 77
116 -20 16 -19 64 1 84 33 34 120 49 253 44 145 -5 203 -23 226 -69 20 -38 5
-76 -32 -85 -77 -17 -102 -27 -152 -62 -91 -62 -91 -66 -25 -163 114 -169 232
-306 298 -349 87 -56 108 -106 63 -148 -13 -13 -39 -27 -58 -32 -44 -13 -380
-13 -413 0 -14 5 -83 82 -160 180 -75 93 -142 170 -150 170 -20 0 -26 -12 -32
-64 -7 -57 8 -105 46 -141 21 -20 30 -38 30 -60 0 -86 -73 -110 -325 -109
-206 1 -246 10 -269 65 -18 43 -10 66 35 96 21 13 43 39 50 56 17 43 26 756
10 785 -7 13 -32 27 -65 36 -60 18 -74 38 -56 77 14 32 59 59 150 94 128 49
270 84 330 82 l55 -2 -4 -287z m-1840 -68 c131 -24 250 -115 309 -233 31 -63
32 -72 27 -138 -5 -55 -11 -77 -28 -95 -22 -24 -23 -24 -260 -24 -131 0 -244
-3 -253 -6 -11 -4 -16 -19 -16 -47 0 -36 6 -47 53 -92 54 -52 105 -75 170 -75
45 0 153 34 192 60 38 25 53 25 82 -2 16 -15 23 -33 23 -60 0 -32 -8 -47 -45
-87 -55 -58 -162 -114 -253 -132 -89 -17 -243 -7 -314 20 -163 63 -281 222
-295 399 -11 148 31 258 141 368 127 126 291 177 467 144z m982 -5 c172 -45
303 -178 323 -327 8 -56 -16 -132 -46 -148 -11 -6 -118 -10 -254 -10 -129 0
-241 -3 -250 -6 -20 -8 -21 -56 -2 -92 35 -67 128 -121 207 -122 51 0 143 28
195 61 46 28 75 22 96 -21 23 -49 13 -86 -37 -135 -121 -117 -345 -167 -527
-117 -220 61 -365 290 -329 516 45 280 346 474 624 401z m2410 -13 c103 -37
179 -110 198 -189 5 -21 9 -108 9 -194 0 -232 16 -290 81 -304 23 -5 29 -12
29 -32 0 -96 -138 -203 -262 -203 -71 0 -101 11 -151 56 -43 39 -69 40 -115 4
-73 -58 -226 -77 -333 -43 -131 42 -205 199 -150 318 26 56 84 111 156 145 59
29 133 45 265 56 92 7 95 10 94 96 -1 126 -31 178 -102 178 -37 0 -67 -26
-144 -121 -42 -52 -90 -79 -142 -79 -76 0 -111 82 -66 155 41 66 143 124 284
161 115 31 257 29 349 -4z m-5888 -2154 c15 -29 30 -57 35 -62 4 -4 21 17 36
49 29 59 43 71 69 61 12 -4 5 -23 -35 -90 -44 -74 -50 -92 -50 -140 0 -49 -2
-56 -20 -56 -18 0 -20 7 -20 59 0 51 -6 71 -40 133 -45 83 -48 98 -21 98 14 0
28 -16 46 -52z m526 13 c41 -41 46 -58 40 -158 -2 -33 -63 -90 -102 -95 -131
-20 -210 138 -122 243 31 37 55 48 107 48 32 1 45 -6 77 -38z m289 -55 c0
-107 10 -143 42 -155 27 -10 64 4 74 28 4 9 8 61 9 116 1 96 2 100 24 103 l23
4 -3 -120 c-4 -131 -10 -145 -68 -169 -41 -17 -81 -10 -115 22 -25 23 -26 28
-26 145 0 113 1 120 20 120 19 0 20 -7 20 -94z m547 59 c29 -33 26 -80 -5
-105 -18 -14 -18 -16 -1 -40 10 -14 21 -44 25 -67 6 -39 5 -43 -14 -43 -16 0
-24 10 -33 43 -16 53 -36 77 -66 77 -22 0 -23 -4 -23 -61 0 -56 -2 -60 -21
-57 -20 3 -21 9 -22 134 0 72 3 137 8 144 5 8 26 11 68 8 51 -4 64 -9 84 -33z
m653 22 c80 -40 96 -183 29 -246 -39 -36 -92 -45 -142 -23 -130 58 -88 281 53
281 19 1 46 -5 60 -12z m380 -87 c35 -55 64 -100 64 -100 1 0 1 44 1 97 0 91
1 98 20 98 19 0 20 -8 23 -142 3 -143 3 -143 -20 -143 -18 0 -36 21 -85 98
l-63 97 0 -97 c0 -98 0 -98 -25 -98 l-25 0 0 138 c0 76 3 142 7 145 21 22 45
0 103 -93z m378 -27 l3 -123 54 0 c48 0 55 -2 55 -20 0 -18 -7 -20 -80 -20
l-80 0 0 146 c0 145 0 145 23 142 21 -3 22 -7 25 -125z m352 -18 c0 -138 -1
-145 -20 -145 -19 0 -20 7 -20 145 0 138 1 145 20 145 19 0 20 -7 20 -145z
m281 123 c6 -13 32 -56 58 -97 l46 -74 5 94 c5 86 7 94 25 94 19 0 20 -8 23
-142 l3 -143 -25 0 c-20 0 -34 16 -79 88 -30 48 -59 96 -64 106 -8 14 -10 -10
-9 -85 1 -101 0 -104 -21 -107 -23 -3 -23 -3 -23 142 l0 146 25 0 c15 0 29 -8
36 -22z m532 8 c8 -22 -2 -26 -60 -26 l-53 0 0 -39 0 -40 52 -3 c41 -2 54 -7
56 -20 3 -15 -5 -18 -52 -18 l-56 0 0 -45 0 -45 60 0 c53 0 60 -2 60 -20 0
-18 -7 -20 -80 -20 l-80 0 0 145 0 145 74 0 c54 0 75 -4 79 -14z m620 -6 c5
-18 0 -20 -54 -20 l-59 0 0 -39 0 -40 53 -3 c44 -3 52 -6 52 -23 0 -17 -8 -20
-52 -23 l-53 -3 0 -60 c0 -56 -1 -59 -25 -59 l-25 0 0 138 c0 76 3 142 7 145
3 4 39 7 79 7 63 0 72 -2 77 -20z m343 -115 c24 -71 44 -135 44 -142 0 -20
-40 -15 -46 5 -22 67 -23 68 -66 68 -42 -1 -50 -8 -68 -58 -6 -18 -17 -28 -30
-28 -26 0 -25 6 6 93 14 39 34 100 45 135 19 58 22 63 46 60 24 -3 30 -14 69
-133z m311 123 c10 -16 54 -135 60 -165 8 -36 18 -27 37 33 35 113 54 146 78
142 25 -3 25 -5 41 -220 4 -65 4 -68 -18 -68 -19 0 -23 7 -29 53 -3 28 -6 75
-6 102 l-1 50 -34 -94 c-19 -52 -39 -99 -44 -104 -20 -20 -37 4 -66 94 l-30
94 -9 -97 c-8 -84 -12 -98 -27 -98 -10 0 -20 3 -22 8 -5 8 11 250 18 270 2 6
13 12 24 12 11 0 23 -6 28 -12z m473 -133 c0 -138 -1 -145 -20 -145 -19 0 -20
7 -20 145 0 138 1 145 20 145 19 0 20 -7 20 -145z m267 105 c1 -19 2 -74 2
-122 l1 -88 55 0 c48 0 55 -2 55 -20 0 -18 -7 -20 -80 -20 l-80 0 0 146 c0
145 0 145 23 142 18 -2 22 -10 24 -38z m298 32 c6 -4 16 -20 23 -37 8 -16 20
-41 29 -54 l15 -24 32 59 c22 41 38 60 54 62 12 2 22 -1 22 -6 0 -11 -67 -132
-81 -146 -5 -6 -9 -38 -9 -73 0 -56 -2 -63 -20 -63 -18 0 -20 7 -20 55 0 46
-7 68 -45 138 -25 46 -45 87 -45 90 0 9 32 9 45 -1z m748 -4 c34 -18 46 -39
47 -81 0 -53 -35 -87 -90 -87 l-40 0 0 -55 c0 -48 -2 -55 -20 -55 -19 0 -20 7
-20 139 0 102 3 141 13 144 23 10 88 7 110 -5z m346 -6 c11 -21 91 -253 91
-264 0 -5 -11 -8 -23 -8 -19 0 -26 8 -36 40 -12 39 -12 40 -60 40 -47 0 -48
-1 -60 -40 -10 -33 -16 -40 -37 -40 -21 0 -25 4 -19 18 3 9 22 62 40 118 51
152 52 154 74 154 11 0 25 -8 30 -18z m448 -16 c28 -33 29 -65 4 -98 -13 -17
-17 -29 -10 -39 5 -8 14 -31 20 -52 5 -21 13 -45 16 -53 4 -12 -1 -15 -23 -12
-24 3 -29 9 -40 52 -14 52 -26 66 -61 66 -21 0 -23 -4 -23 -60 0 -53 -2 -60
-20 -60 -19 0 -20 7 -20 139 0 102 3 141 13 145 6 3 36 4 66 2 45 -2 59 -8 78
-30z m411 12 c-2 -19 -10 -24 -40 -26 l-38 -3 0 -120 0 -119 -25 0 -25 0 0
119 0 120 -42 3 c-40 3 -53 16 -41 41 2 4 51 7 109 7 104 0 105 0 102 -22z
m299 -82 l62 -99 3 99 c3 85 5 99 21 102 16 3 17 -9 17 -143 0 -146 0 -146
-22 -143 -16 2 -40 31 -83 100 l-60 97 -3 -100 c-2 -91 -4 -99 -22 -99 -19 0
-20 8 -20 146 0 144 0 145 22 142 15 -2 41 -33 85 -102z m483 84 c0 -18 -7
-20 -55 -20 l-55 0 0 -39 0 -40 53 -3 c38 -2 52 -7 52 -18 0 -11 -14 -16 -52
-18 l-53 -3 0 -45 0 -44 60 0 c53 0 60 -2 60 -20 0 -18 -7 -20 -85 -20 l-85 0
0 138 c0 76 3 142 7 145 3 4 39 7 80 7 66 0 73 -2 73 -20z m367 -14 c28 -33
29 -65 3 -98 -11 -14 -15 -29 -10 -34 4 -5 15 -35 23 -66 l15 -58 -23 0 c-20
0 -26 9 -40 55 -12 44 -20 56 -41 61 -34 9 -39 1 -39 -59 0 -46 -3 -52 -23
-55 -22 -3 -22 -3 -22 136 0 103 3 142 13 146 6 3 36 4 66 2 45 -2 59 -8 78
-30z"/>
<path d="M10216 7408 c-24 -34 -21 -123 4 -148 25 -25 32 -25 55 0 27 29 27
120 1 149 -24 27 -41 27 -60 -1z"/>
<path d="M9926 7391 c-23 -25 -31 -82 -17 -124 13 -37 31 -50 57 -40 45 17 45
145 0 175 -16 11 -21 10 -40 -11z"/>
<path d="M10500 7076 c-29 -61 -109 -139 -172 -170 -126 -61 -238 -68 -355
-24 -58 23 -157 104 -168 139 -4 10 -13 19 -21 19 -34 0 14 -87 82 -150 134
-124 349 -134 512 -23 29 20 66 53 83 75 56 70 98 178 70 178 -5 0 -19 -20
-31 -44z"/>
<path d="M4080 7247 c-37 -18 -70 -74 -70 -117 0 -55 18 -65 118 -65 76 0 86
2 103 24 67 82 -53 208 -151 158z"/>
<path d="M5029 7237 c-42 -28 -68 -93 -53 -134 8 -24 17 -29 61 -37 61 -10
137 -1 158 20 8 9 15 31 15 50 0 101 -99 156 -181 101z"/>
<path d="M7330 6853 c-92 -82 -22 -259 79 -202 37 21 51 55 51 130 0 51 -4 70
-18 82 -28 26 -77 21 -112 -10z"/>
<path d="M2131 5214 c-57 -72 -24 -184 55 -184 58 0 96 71 75 141 -21 69 -91
93 -130 43z"/>
<path d="M2990 5195 c0 -44 1 -45 33 -45 39 0 57 15 57 47 0 25 -26 43 -64 43
-24 0 -26 -3 -26 -45z"/>
<path d="M3646 5209 c-32 -38 -35 -99 -6 -146 17 -28 25 -33 59 -33 31 0 44 6
60 26 49 62 10 184 -59 184 -19 0 -36 -10 -54 -31z"/>
<path d="M6559 5165 l-16 -55 32 0 33 0 -14 48 c-8 26 -15 50 -17 54 -1 4 -9
-17 -18 -47z"/>
<path d="M8660 5190 l0 -51 32 3 c69 7 68 89 -1 96 l-31 3 0 -51z"/>
<path d="M9046 5166 c-22 -52 -21 -56 15 -56 29 0 30 1 24 33 -13 59 -22 64
-39 23z"/>
<path d="M9420 5195 c0 -44 1 -45 33 -45 39 0 57 15 57 47 0 25 -26 43 -64 43
-24 0 -26 -3 -26 -45z"/>
<path d="M10989 5238 c-1 -2 -3 -22 -4 -45 -3 -42 -3 -43 29 -43 18 0 37 5 44
12 18 18 14 56 -7 68 -18 9 -59 14 -62 8z"/>
</g>
</svg>
