<svg width="152" height="134" viewBox="0 0 152 134" fill="none" xmlns="http://www.w3.org/2000/svg">
<path d="M75.8861 129.964C110.613 129.964 138.764 101.823 138.764 67.1102C138.764 32.3972 110.613 4.25684 75.8861 4.25684C41.1594 4.25684 13.0078 32.3972 13.0078 67.1102C13.0078 101.823 41.1594 129.964 75.8861 129.964Z" fill="white" stroke="#4385F4" stroke-width="8.07" stroke-miterlimit="10"/>
<path d="M75.8878 125.714C108.268 125.714 134.518 99.4763 134.518 67.1099C134.518 34.7435 108.268 8.50537 75.8878 8.50537C43.5073 8.50537 17.2578 34.7435 17.2578 67.1099C17.2578 99.4763 43.5073 125.714 75.8878 125.714Z" stroke="#4385F4" stroke-width="2.02" stroke-miterlimit="10" stroke-linecap="round" stroke-dasharray="2.02 4.04 2.02 4.04 2.02 4.04"/>
<path d="M108.898 59.8395C108.907 60.1439 108.85 60.4466 108.732 60.7272C108.613 61.0078 108.436 61.2596 108.212 61.4657C107.742 61.8978 107.12 62.1259 106.482 62.1002C105.987 62.1058 105.5 61.9775 105.072 61.7289C104.695 61.5234 104.373 61.23 104.133 60.8735L105.072 60.0322C105.129 60.1193 105.194 60.2011 105.265 60.2766C105.423 60.4504 105.616 60.5888 105.832 60.6827C106.047 60.7767 106.28 60.8241 106.515 60.8218C106.805 60.8393 107.09 60.7432 107.309 60.5539C107.41 60.4608 107.489 60.346 107.54 60.2183C107.59 60.0905 107.611 59.953 107.601 59.816C107.601 59.4541 107.37 59.2049 106.915 59.0733C106.008 58.796 105.505 58.6409 105.453 58.6033C105.101 58.4427 104.791 58.2031 104.546 57.903C104.32 57.5474 104.21 57.1302 104.231 56.7092C104.225 56.419 104.282 56.1308 104.398 55.8646C104.514 55.5985 104.686 55.3607 104.903 55.1676C105.338 54.7639 105.913 54.5449 106.506 54.5566C106.96 54.5519 107.407 54.6619 107.808 54.8762C108.149 55.038 108.443 55.2839 108.663 55.5906L107.836 56.4601C107.717 56.3379 107.586 56.2277 107.446 56.1311C107.186 55.9227 106.867 55.8025 106.534 55.788C106.291 55.7767 106.051 55.8425 105.848 55.976C105.743 56.0536 105.659 56.156 105.603 56.2742C105.547 56.3923 105.521 56.5224 105.528 56.6528C105.518 56.7774 105.541 56.9025 105.596 57.015C105.65 57.1275 105.734 57.2232 105.838 57.292C106.202 57.4712 106.59 57.5963 106.99 57.6633C107.514 57.7688 107.994 58.0272 108.371 58.4059C108.555 58.5948 108.696 58.8199 108.787 59.0668C108.877 59.3138 108.915 59.577 108.898 59.8395ZM102.817 62.0109L101.482 62.2083V57.2967C101.511 56.9422 101.406 56.5896 101.186 56.3097C101.067 56.2003 100.927 56.1164 100.774 56.063C100.621 56.0097 100.459 55.9881 100.298 55.9995C100.084 55.9915 99.8722 56.042 99.6851 56.1455C99.4979 56.249 99.3426 56.4017 99.2358 56.587C99.0781 56.8397 98.992 57.1305 98.9867 57.4283V62.0015L97.6568 62.2506V57.3296C97.6807 56.9749 97.5774 56.6233 97.3654 56.3379C97.2671 56.2253 97.1446 56.1364 97.0071 56.0778C96.8695 56.0192 96.7205 55.9924 96.5712 55.9995H96.4443C96.235 55.9872 96.0268 56.0373 95.846 56.1436C95.6653 56.2499 95.5202 56.4075 95.4292 56.5964C95.2574 56.9519 95.1751 57.344 95.1896 57.7385V62.0015L93.8079 62.2506V55.0501L95.0533 54.8339V55.7739C95.1674 55.5879 95.3031 55.4159 95.4575 55.2616C95.6209 55.0986 95.8153 54.9697 96.0291 54.8825C96.2429 54.7954 96.4719 54.7517 96.7028 54.754C97.0909 54.6961 97.487 54.7746 97.8237 54.976C98.1605 55.1773 98.417 55.4892 98.5497 55.8585C98.7407 55.5065 99.0252 55.214 99.3718 55.0134C99.7184 54.8127 100.114 54.7115 100.514 54.7211C100.858 54.6952 101.203 54.753 101.52 54.8897C101.837 55.0264 102.116 55.2379 102.333 55.506C102.685 56.067 102.849 56.7254 102.803 57.386L102.817 62.0109ZM92.8963 54.7634L92.2665 56.2251C92.1836 56.2194 92.1004 56.2194 92.0175 56.2251C91.8885 56.2252 91.7597 56.2346 91.6321 56.2533C91.487 56.2836 91.3464 56.3326 91.2139 56.399C90.8891 56.5735 90.6338 56.8538 90.4902 57.1933C90.2585 57.6489 90.1392 58.1533 90.1424 58.6644V62.0203L88.8078 62.2365V55.0501L90.0437 54.8245V56.3191C90.1988 56.0606 90.368 55.8021 90.5137 55.5342C90.7262 55.2795 90.9993 55.0824 91.3079 54.9608C91.5958 54.8702 91.8945 54.8181 92.1961 54.8057C92.4277 54.7706 92.6621 54.7565 92.8963 54.7634ZM86.8857 62.0109L85.5511 62.1989V55.0501L86.8857 54.8433V62.0109ZM87.1536 53.1278L86.2607 54.2699L85.4054 53.1278L86.3077 51.9951L87.1536 53.1278ZM84.16 53.8798H80.4334V56.4601H83.3282V57.7808H80.4334V62.0109L78.9813 62.2271V52.5497H83.8734L84.16 53.8798ZM75.9596 58.5422C75.9689 58.2051 75.9096 57.8695 75.7852 57.556C75.6607 57.2425 75.4739 56.9576 75.2358 56.7186C75.0272 56.4844 74.7717 56.2965 74.486 56.1669C74.2003 56.0374 73.8906 55.9692 73.5769 55.9666C73.2613 55.9553 72.9471 56.0134 72.6564 56.1368C72.3657 56.2603 72.1056 56.446 71.8946 56.681C71.4906 57.1382 71.2727 57.7302 71.2836 58.3401C71.2595 59.0015 71.4823 59.6482 71.9087 60.1544C72.105 60.3833 72.3498 60.5658 72.6253 60.6886C72.9009 60.8113 73.2002 60.8712 73.5018 60.8641C74.1275 60.8684 74.7312 60.633 75.1889 60.2061C75.4308 60.0019 75.6248 59.747 75.7572 59.4595C75.8896 59.172 75.9571 58.8588 75.9549 58.5422H75.9596ZM77.1344 62.0109L75.8797 62.2083V60.9816L75.6118 61.2918C75.3749 61.5136 75.1074 61.7003 74.8176 61.8464C74.3914 62.0469 73.9258 62.1496 73.4548 62.1472C72.986 62.154 72.5213 62.0598 72.0923 61.8708C71.6633 61.6818 71.2801 61.4026 70.9688 61.0521C70.3051 60.3493 69.9425 59.4148 69.9584 58.4482C69.9398 57.4619 70.2977 56.5056 70.9594 55.7739C71.2622 55.4192 71.6394 55.1355 72.0641 54.943C72.4889 54.7505 72.9509 54.6539 73.4172 54.66C73.9153 54.6493 74.4101 54.7438 74.8693 54.9373C75.1469 55.0659 75.3986 55.2443 75.6118 55.4637C75.6823 55.5577 75.7528 55.6611 75.8233 55.7504V52.5403L77.1532 52.3429L77.1344 62.0109ZM67.7685 58.4717C67.777 58.1485 67.7207 57.8268 67.6028 57.5257C67.485 57.2246 67.308 56.9502 67.0824 56.7186C66.8672 56.4847 66.6045 56.2995 66.3119 56.1754C66.0193 56.0514 65.7036 55.9914 65.3859 55.9995C65.0777 55.9971 64.7729 56.0624 64.4927 56.1907C64.2126 56.319 63.964 56.5072 63.7646 56.7421C63.332 57.2007 63.093 57.8085 63.0972 58.4388C63.0879 59.0762 63.3312 59.6913 63.774 60.1497C63.9877 60.3816 64.2481 60.5656 64.5381 60.6895C64.8281 60.8135 65.141 60.8746 65.4564 60.8688C65.7606 60.8709 66.0618 60.8088 66.3404 60.6865C66.619 60.5642 66.8686 60.3845 67.073 60.1591C67.2964 59.9393 67.4729 59.6764 67.5917 59.3864C67.7104 59.0963 67.769 58.7851 67.7638 58.4717H67.7685ZM69.1313 58.4717C69.1379 58.962 69.0466 59.4485 68.8626 59.9029C68.6786 60.3574 68.4057 60.7704 68.0598 61.1179C67.7218 61.4691 67.3164 61.7486 66.8678 61.9394C66.4192 62.1303 65.9368 62.2287 65.4493 62.2287C64.9618 62.2287 64.4794 62.1303 64.0308 61.9394C63.5823 61.7486 63.1768 61.4691 62.8388 61.1179C62.4845 60.7728 62.2049 60.3586 62.0174 59.901C61.8298 59.4434 61.7383 58.9521 61.7485 58.4576C61.736 57.4646 62.1101 56.5055 62.7918 55.7833C63.1095 55.4207 63.5023 55.1315 63.9429 54.9359C64.3836 54.7403 64.8615 54.643 65.3436 54.6506C65.8488 54.6321 66.3523 54.7196 66.8218 54.9074C67.2912 55.0952 67.7161 55.3791 68.0692 55.741C68.4196 56.0972 68.6939 56.5208 68.8757 56.9861C69.0574 57.4515 69.1428 57.9489 69.1266 58.4482L69.1313 58.4717ZM59.1215 58.4717C59.129 58.1486 59.0722 57.8273 58.9544 57.5263C58.8366 57.2254 58.6602 56.9508 58.4354 56.7186C58.2194 56.4846 57.9559 56.2993 57.6625 56.1753C57.3691 56.0513 57.0526 55.9914 56.7342 55.9995C56.4269 55.9975 56.1228 56.0629 55.8435 56.1912C55.5641 56.3195 55.3164 56.5076 55.1176 56.7421C54.6851 57.2007 54.4461 57.8085 54.4503 58.4388C54.4409 59.0762 54.6842 59.6913 55.127 60.1497C55.3399 60.3814 55.5995 60.5654 55.8887 60.6894C56.1779 60.8133 56.4901 60.8745 56.8047 60.8688C57.1097 60.8716 57.4119 60.8098 57.6913 60.6875C57.9708 60.5651 58.2211 60.3851 58.426 60.1591C58.6478 59.938 58.8231 59.6749 58.9417 59.3851C59.0603 59.0954 59.1199 58.7848 59.1168 58.4717H59.1215ZM60.4844 58.4717C60.4912 58.9624 60.3994 59.4494 60.2146 59.9039C60.0297 60.3585 59.7555 60.7713 59.4082 61.1179C59.0709 61.4696 58.666 61.7494 58.2178 61.9406C57.7696 62.1318 57.2873 62.2304 56.8 62.2304C56.3127 62.2304 55.8305 62.1318 55.3823 61.9406C54.9341 61.7494 54.5291 61.4696 54.1918 61.1179C53.8361 60.7737 53.5552 60.3598 53.3667 59.9021C53.1783 59.4443 53.0865 58.9526 53.0969 58.4576C53.0844 57.4646 53.4585 56.5055 54.1402 55.7833C54.4586 55.4203 54.8522 55.131 55.2936 54.9354C55.7351 54.7398 56.2139 54.6426 56.6966 54.6506C57.2018 54.6324 57.7053 54.72 58.1747 54.9078C58.644 55.0956 59.069 55.3794 59.4223 55.741C59.7726 56.0972 60.047 56.5208 60.2288 56.9861C60.4105 57.4515 60.4959 57.9489 60.4797 58.4482L60.4844 58.4717ZM51.7153 61.0474C51.4897 61.2025 51.3205 61.3153 51.1983 61.3858C50.811 61.6294 50.4057 61.843 49.9859 62.025C49.5223 62.2326 49.0226 62.3475 48.5149 62.3634C47.1245 62.4102 45.7722 61.9031 44.7554 60.9534C44.2661 60.5075 43.8785 59.9614 43.619 59.3524C43.3595 58.7433 43.2342 58.0855 43.2516 57.4236C43.2327 56.1071 43.7167 54.8329 44.605 53.861C45.008 53.3827 45.5121 52.9997 46.081 52.7396C46.6498 52.4795 47.2692 52.3489 47.8946 52.357C48.4767 52.3625 49.0541 52.4609 49.6052 52.6484C50.3093 52.8628 50.9531 53.2395 51.485 53.7482L50.6203 54.7164C50.2232 54.3392 49.7388 54.0663 49.2105 53.9221C48.761 53.7954 48.2958 53.7337 47.8288 53.7388C47.39 53.7351 46.9563 53.8324 46.5611 54.0231C46.1659 54.2138 45.8198 54.4928 45.5496 54.8386C44.9403 55.5839 44.617 56.5223 44.6379 57.4847C44.6249 57.9551 44.7111 58.423 44.8908 58.8578C45.0706 59.2927 45.3399 59.6848 45.6812 60.0087C46.0351 60.3438 46.4521 60.6053 46.9079 60.778C47.3637 60.9507 47.8492 61.031 48.3364 61.0145C48.8218 61.002 49.2946 60.8574 49.7039 60.5962C50.0939 60.2954 50.2913 60.1544 50.3007 60.1262V58.0158H47.4012L47.8194 56.6998H51.673L51.7153 61.0474Z" fill="#4385F4"/>
<path d="M74.308 30.2488C74.308 30.2488 73.0438 30.1219 73.0438 31.2405V36.2037H81.3853V37.6936C81.3894 37.794 81.3724 37.8942 81.3354 37.9877C81.2985 38.0812 81.2423 38.1659 81.1705 38.2363C81.0988 38.3067 81.0131 38.3613 80.919 38.3965C80.8248 38.4318 80.7243 38.4469 80.624 38.4409H73.0438V44.894H82.1419C82.1419 44.894 87.6496 44.0527 87.7013 38.4409V30.2488H74.308ZM87.2267 22.207H70.9996C65.13 23.617 65.0078 28.4675 65.0078 28.4675V44.9175H71.2486V29.9386C71.2511 29.5825 71.3771 29.2384 71.6051 28.9649C71.8331 28.6915 72.1489 28.5057 72.4987 28.4393H87.2267V22.207Z" fill="#4385F4"/>
<path d="M151.537 79.3955H134.516V105.866H151.537L146.072 93.4345L151.537 79.3955Z" fill="#3876DF"/>
<path d="M0.234375 79.3955H17.2557V105.866H0.234375L5.6951 93.4345L0.234375 79.3955Z" fill="#3876DF"/>
<path d="M143.026 70.4146L134.516 79.354V105.82L143.026 96.885V70.4146Z" fill="#2354A6"/>
<path d="M8.74219 70.4146L17.2528 79.354V105.82L8.74219 96.885V70.4146Z" fill="#2354A6"/>
<path d="M94.7725 108.479C94.9549 108.263 95.0519 107.987 95.0451 107.704C95.0451 107.662 95.0451 107.577 95.0451 107.455C95.0451 107.333 95.0451 107.243 95.0451 107.201C95.051 106.918 94.9542 106.643 94.7725 106.426C94.591 106.254 94.3505 106.158 94.1005 106.158C93.8505 106.158 93.61 106.254 93.4285 106.426C93.2469 106.643 93.1501 106.918 93.1559 107.201V107.69C93.1492 107.973 93.2461 108.249 93.4285 108.465C93.61 108.637 93.8505 108.733 94.1005 108.733C94.3505 108.733 94.591 108.637 94.7725 108.465V108.479ZM92.9774 108.837C92.7019 108.537 92.5506 108.144 92.5544 107.737V107.455V107.168C92.5522 106.762 92.7051 106.37 92.9821 106.073C93.2937 105.806 93.6903 105.66 94.1005 105.66C94.5107 105.66 94.9074 105.806 95.219 106.073C95.4976 106.369 95.6508 106.762 95.6466 107.168C95.6466 107.267 95.6466 107.361 95.6466 107.455C95.6466 107.549 95.6466 107.643 95.6466 107.737C95.6517 108.143 95.5022 108.536 95.2284 108.837C95.0785 108.979 94.901 109.088 94.707 109.158C94.513 109.229 94.3065 109.258 94.1005 109.246C93.8975 109.257 93.6943 109.227 93.5036 109.156C93.3128 109.086 93.1385 108.977 92.9915 108.837H92.9774ZM89.3212 108.837C89.1808 108.685 89.0715 108.508 88.9998 108.314C88.928 108.121 88.8951 107.915 88.903 107.709V107.445V107.178C88.8883 106.763 89.0387 106.359 89.3212 106.054C89.4688 105.915 89.6433 105.807 89.834 105.738C90.0247 105.668 90.2276 105.638 90.4303 105.65C90.7078 105.641 90.9834 105.699 91.2339 105.819C91.4333 105.914 91.6037 106.06 91.7273 106.242C91.8278 106.392 91.8877 106.565 91.9012 106.745C91.9037 106.765 91.9011 106.786 91.8937 106.805C91.8863 106.823 91.8744 106.84 91.8589 106.853C91.845 106.868 91.8282 106.88 91.8097 106.888C91.7911 106.896 91.7711 106.9 91.7508 106.9H91.4595C91.4228 106.903 91.3863 106.893 91.3561 106.872C91.3297 106.837 91.3076 106.799 91.2903 106.759C91.2359 106.57 91.1202 106.405 90.9613 106.289C90.8031 106.193 90.62 106.146 90.435 106.153C90.3125 106.147 90.1902 106.167 90.076 106.211C89.9618 106.256 89.8583 106.324 89.7724 106.411C89.5903 106.633 89.4951 106.914 89.5045 107.201V107.671C89.4934 107.958 89.5888 108.239 89.7724 108.461C89.8583 108.548 89.9618 108.616 90.076 108.661C90.1902 108.705 90.3125 108.725 90.435 108.719C90.6216 108.728 90.8065 108.68 90.966 108.583C91.1221 108.465 91.2359 108.3 91.2903 108.113C91.3062 108.074 91.3285 108.037 91.3561 108.005C91.3863 107.984 91.4228 107.974 91.4595 107.977H91.7508C91.7908 107.977 91.8292 107.992 91.8589 108.019C91.874 108.032 91.8858 108.049 91.8931 108.068C91.9005 108.087 91.9032 108.107 91.9012 108.127C91.8875 108.305 91.8276 108.477 91.7273 108.625C91.6028 108.808 91.4327 108.956 91.2339 109.053C90.9834 109.173 90.7078 109.231 90.4303 109.222C90.2296 109.238 90.0278 109.213 89.8371 109.148C89.6465 109.083 89.4709 108.981 89.3212 108.846V108.837ZM87.3851 109.128C87.3712 109.114 87.3603 109.097 87.3531 109.078C87.3458 109.06 87.3423 109.04 87.3428 109.02V108.55C87.3425 108.508 87.3576 108.468 87.3851 108.437C87.3984 108.422 87.415 108.41 87.4338 108.401C87.4525 108.393 87.4728 108.389 87.4931 108.39H87.9631C87.9835 108.389 88.0038 108.393 88.0225 108.401C88.0412 108.41 88.0578 108.422 88.0712 108.437C88.0986 108.468 88.1137 108.508 88.1135 108.55V109.02C88.1141 109.04 88.1107 109.06 88.1033 109.078C88.096 109.097 88.085 109.114 88.0709 109.128C88.0568 109.142 88.0399 109.153 88.0214 109.16C88.0029 109.168 87.983 109.171 87.9631 109.17H87.4931C87.4542 109.174 87.4154 109.162 87.3851 109.137V109.128ZM84.4244 109.086C84.2444 109.01 84.0838 108.894 83.9545 108.747C83.8703 108.66 83.816 108.548 83.7994 108.428C83.7987 108.408 83.8025 108.388 83.8107 108.371C83.8188 108.353 83.8311 108.337 83.8464 108.324C83.8759 108.301 83.9122 108.288 83.9498 108.287H84.227C84.247 108.281 84.2682 108.281 84.2881 108.287C84.3137 108.303 84.336 108.324 84.3539 108.348C84.4485 108.466 84.565 108.565 84.697 108.639C84.854 108.718 85.0289 108.756 85.2045 108.747C85.4046 108.756 85.6031 108.709 85.7778 108.611C85.8452 108.572 85.9008 108.516 85.9389 108.448C85.9769 108.38 85.996 108.303 85.994 108.226C85.9977 108.129 85.964 108.035 85.9 107.962C85.8119 107.88 85.7057 107.819 85.5899 107.784C85.3815 107.71 85.1679 107.652 84.9508 107.61C84.6497 107.565 84.3668 107.438 84.1331 107.243C84.0534 107.162 83.9911 107.066 83.9499 106.96C83.9087 106.854 83.8894 106.741 83.8934 106.628C83.897 106.46 83.9475 106.298 84.0391 106.158C84.147 105.995 84.2985 105.867 84.4761 105.786C84.69 105.684 84.9252 105.634 85.1622 105.641C85.4079 105.634 85.652 105.682 85.8765 105.782C86.0474 105.856 86.1999 105.966 86.323 106.106C86.4049 106.193 86.4575 106.303 86.4734 106.421C86.4725 106.44 86.4679 106.458 86.4598 106.475C86.4518 106.492 86.4404 106.507 86.4264 106.52C86.3977 106.544 86.3609 106.558 86.323 106.557H86.0739C86.047 106.559 86.0201 106.553 85.9961 106.541C85.9721 106.528 85.9519 106.51 85.9376 106.487C85.8624 106.402 85.8013 106.336 85.7497 106.289C85.685 106.235 85.6098 106.195 85.5288 106.172C85.4107 106.133 85.2865 106.115 85.1622 106.12C84.9857 106.109 84.8106 106.157 84.6641 106.256C84.6086 106.299 84.5639 106.354 84.5337 106.416C84.5034 106.479 84.4886 106.548 84.4902 106.618C84.4892 106.703 84.5156 106.785 84.5654 106.853C84.6406 106.936 84.7362 106.998 84.8427 107.032C85.0414 107.105 85.2457 107.161 85.4536 107.201C85.7794 107.248 86.0873 107.379 86.3465 107.582C86.4336 107.661 86.5023 107.759 86.5478 107.868C86.5932 107.976 86.6144 108.094 86.6096 108.212C86.6124 108.396 86.5565 108.577 86.4499 108.729C86.3298 108.892 86.1672 109.018 85.9799 109.095C85.7358 109.189 85.4754 109.234 85.2139 109.227C84.9444 109.247 84.674 109.204 84.4244 109.1V109.086ZM78.1601 109.128C78.1462 109.114 78.1354 109.097 78.1281 109.078C78.1208 109.06 78.1173 109.04 78.1178 109.02V105.871C78.1168 105.851 78.12 105.831 78.1273 105.812C78.1346 105.794 78.1458 105.777 78.1601 105.763C78.1734 105.747 78.1901 105.735 78.2088 105.727C78.2275 105.719 78.2478 105.715 78.2682 105.716H78.5501C78.5699 105.715 78.5896 105.718 78.6076 105.727C78.6256 105.735 78.6414 105.747 78.6535 105.763C78.6679 105.777 78.679 105.794 78.6863 105.812C78.6936 105.831 78.6969 105.851 78.6958 105.871V106.097C78.8111 105.952 78.9587 105.836 79.1268 105.758C79.2949 105.681 79.4789 105.644 79.6639 105.65C79.8782 105.637 80.0916 105.688 80.2767 105.797C80.4618 105.905 80.6101 106.067 80.7025 106.261C80.813 106.071 80.9763 105.918 81.1724 105.819C81.3744 105.705 81.6031 105.647 81.835 105.65C82.0009 105.645 82.1659 105.676 82.3191 105.74C82.4722 105.804 82.61 105.9 82.7232 106.021C82.9726 106.322 83.097 106.708 83.071 107.098V109.02C83.0714 109.04 83.0679 109.06 83.0607 109.078C83.0534 109.097 83.0426 109.114 83.0287 109.128C83.0138 109.143 82.9961 109.154 82.9767 109.161C82.9573 109.168 82.9366 109.171 82.9159 109.17H82.6339C82.6132 109.171 82.5925 109.168 82.5731 109.161C82.5537 109.154 82.536 109.143 82.5212 109.128C82.5073 109.114 82.4964 109.097 82.4892 109.078C82.4819 109.06 82.4784 109.04 82.4789 109.02V107.14C82.5058 106.867 82.4267 106.595 82.258 106.379C82.1829 106.302 82.0928 106.242 81.9932 106.202C81.8937 106.163 81.787 106.144 81.68 106.148C81.5773 106.147 81.4756 106.168 81.3816 106.209C81.2876 106.251 81.2035 106.312 81.1348 106.388C80.9616 106.598 80.8788 106.869 80.9046 107.14V109.02C80.9052 109.04 80.9018 109.06 80.8944 109.078C80.8871 109.097 80.8761 109.114 80.862 109.128C80.8479 109.142 80.831 109.153 80.8125 109.16C80.7939 109.168 80.7741 109.171 80.7542 109.17H80.4628C80.4421 109.171 80.4214 109.168 80.402 109.161C80.3826 109.154 80.3649 109.143 80.35 109.128C80.3362 109.114 80.3253 109.097 80.318 109.078C80.3108 109.06 80.3073 109.04 80.3077 109.02V107.14C80.3332 106.867 80.2505 106.595 80.0775 106.383C80.0041 106.307 79.9156 106.247 79.8178 106.206C79.7199 106.166 79.6147 106.146 79.5088 106.148C79.4066 106.148 79.3054 106.168 79.2116 106.209C79.1177 106.249 79.0333 106.308 78.9637 106.383C78.7904 106.594 78.7076 106.864 78.7334 107.135V109.015C78.7341 109.035 78.7306 109.055 78.7233 109.074C78.716 109.092 78.7049 109.109 78.6908 109.123C78.6767 109.137 78.6599 109.148 78.6414 109.156C78.6228 109.163 78.603 109.166 78.583 109.166H78.287C78.2671 109.166 78.2472 109.163 78.2287 109.155C78.2101 109.148 78.1932 109.137 78.1789 109.123L78.1601 109.128ZM75.6647 109.128C75.6508 109.114 75.64 109.097 75.6327 109.078C75.6254 109.06 75.6219 109.04 75.6224 109.02V105.876C75.6222 105.834 75.6372 105.794 75.6647 105.763C75.6931 105.734 75.732 105.717 75.7728 105.716H76.0548C76.0759 105.715 76.097 105.718 76.1165 105.726C76.136 105.735 76.1535 105.747 76.1675 105.763C76.182 105.778 76.1932 105.795 76.2005 105.815C76.2078 105.834 76.2109 105.855 76.2098 105.876V106.167C76.3075 106.009 76.4472 105.882 76.6131 105.799C76.7791 105.716 76.9649 105.681 77.1497 105.697H77.4082C77.4289 105.696 77.4496 105.699 77.469 105.706C77.4884 105.714 77.5061 105.725 77.521 105.739C77.5354 105.754 77.5462 105.772 77.5527 105.791C77.5592 105.811 77.5612 105.832 77.5586 105.852V106.097C77.5599 106.117 77.5569 106.137 77.5499 106.156C77.5429 106.175 77.5319 106.193 77.5178 106.207C77.5036 106.222 77.4865 106.234 77.4677 106.241C77.4488 106.249 77.4285 106.252 77.4082 106.252H77.0134C76.9085 106.246 76.8036 106.262 76.7051 106.299C76.6065 106.335 76.5164 106.391 76.4401 106.463C76.3692 106.541 76.3145 106.632 76.279 106.732C76.2435 106.831 76.228 106.936 76.2333 107.041V109.001C76.2325 109.042 76.2156 109.081 76.1863 109.109C76.1552 109.137 76.1151 109.152 76.0735 109.152H75.7728C75.7363 109.161 75.6977 109.156 75.6647 109.137V109.128ZM72.4033 109.128C72.3894 109.114 72.3786 109.097 72.3713 109.078C72.364 109.06 72.3605 109.04 72.361 109.02V106.228H71.7877C71.7484 106.229 71.7102 106.215 71.6796 106.191C71.6657 106.176 71.6549 106.159 71.6476 106.141C71.6403 106.122 71.6368 106.102 71.6373 106.082V105.871C71.6363 105.851 71.6395 105.831 71.6468 105.812C71.6541 105.794 71.6653 105.777 71.6796 105.763C71.6929 105.747 71.7096 105.735 71.7283 105.727C71.747 105.719 71.7673 105.715 71.7877 105.716H72.361V105.387C72.3399 105.085 72.4339 104.786 72.6242 104.55C72.7379 104.442 72.8736 104.36 73.022 104.309C73.1704 104.258 73.328 104.239 73.4842 104.254H74.4804C74.5 104.254 74.5194 104.258 74.5373 104.266C74.5551 104.274 74.571 104.286 74.5838 104.301C74.5977 104.315 74.6086 104.332 74.6158 104.351C74.6231 104.37 74.6266 104.389 74.6261 104.409V104.621C74.6272 104.641 74.6239 104.661 74.6166 104.679C74.6093 104.698 74.5982 104.715 74.5838 104.729C74.5556 104.754 74.5185 104.768 74.4804 104.766H73.4983C73.4195 104.758 73.3399 104.768 73.2657 104.796C73.1915 104.824 73.1247 104.868 73.0706 104.926C72.981 105.074 72.94 105.247 72.9531 105.42V105.716H74.4804C74.5002 105.715 74.5199 105.718 74.5379 105.727C74.5559 105.735 74.5717 105.747 74.5838 105.763C74.5982 105.777 74.6093 105.794 74.6166 105.812C74.6239 105.831 74.6272 105.851 74.6261 105.871V109.02C74.6266 109.04 74.6231 109.06 74.6158 109.078C74.6086 109.097 74.5977 109.114 74.5838 109.128C74.5708 109.142 74.5547 109.153 74.5369 109.161C74.519 109.168 74.4997 109.171 74.4804 109.17H74.1938C74.1739 109.171 74.154 109.168 74.1355 109.16C74.1169 109.153 74.1001 109.142 74.086 109.128C74.0719 109.114 74.0608 109.097 74.0535 109.078C74.0462 109.06 74.0427 109.04 74.0434 109.02V106.228H72.9625V109.02C72.9633 109.04 72.9595 109.061 72.9513 109.079C72.9432 109.098 72.931 109.115 72.9155 109.128C72.9016 109.142 72.8847 109.154 72.8661 109.161C72.8474 109.168 72.8274 109.171 72.8075 109.17H72.5208C72.5 109.173 72.4788 109.172 72.4586 109.166C72.4383 109.161 72.4195 109.151 72.4033 109.137V109.128ZM70.157 108.409C70.3155 108.197 70.4027 107.94 70.4061 107.676C70.4061 107.629 70.4061 107.544 70.4061 107.422C70.4061 107.3 70.4061 107.215 70.4061 107.163C70.4039 106.908 70.3144 106.661 70.1523 106.463C70.0672 106.363 69.9601 106.284 69.8394 106.233C69.7187 106.182 69.5877 106.159 69.4568 106.167C69.3251 106.157 69.193 106.179 69.0718 106.231C68.9506 106.284 68.8441 106.365 68.7613 106.468C68.6053 106.7 68.5219 106.973 68.5216 107.253V107.445C68.5216 108.296 68.8364 108.719 69.4615 108.719C69.593 108.728 69.7249 108.706 69.8459 108.654C69.967 108.601 70.0737 108.521 70.157 108.418V108.409ZM68.2772 108.785C68.0356 108.453 67.9041 108.053 67.9013 107.643V107.243C67.9049 106.834 68.0382 106.435 68.2819 106.106C68.4048 105.949 68.5639 105.824 68.7456 105.742C68.9274 105.661 69.1262 105.624 69.3252 105.636C69.5283 105.623 69.7316 105.659 69.9181 105.741C70.1045 105.822 70.2686 105.948 70.3966 106.106V104.569C70.3975 104.528 70.4144 104.489 70.4436 104.461C70.458 104.447 70.4749 104.436 70.4934 104.429C70.512 104.422 70.5318 104.418 70.5517 104.419H70.8525C70.8724 104.418 70.8923 104.421 70.9108 104.429C70.9293 104.436 70.9462 104.447 70.9603 104.461C70.9744 104.475 70.9854 104.492 70.9928 104.511C71.0001 104.529 71.0035 104.549 71.0029 104.569V108.982C71.0035 109.002 71.0001 109.022 70.9928 109.041C70.9854 109.059 70.9744 109.076 70.9603 109.09C70.9462 109.104 70.9293 109.115 70.9108 109.123C70.8923 109.13 70.8724 109.133 70.8525 109.133H70.5658C70.5458 109.134 70.5259 109.131 70.5072 109.123C70.4886 109.116 70.4717 109.105 70.4577 109.09C70.433 109.06 70.4197 109.022 70.4201 108.982V108.696C70.2919 108.862 70.1253 108.994 69.9346 109.082C69.7439 109.17 69.5348 109.21 69.3252 109.199C69.1325 109.217 68.9383 109.19 68.758 109.12C68.5776 109.049 68.4162 108.938 68.2866 108.794L68.2772 108.785ZM66.3364 108.47C66.5187 108.253 66.6157 107.978 66.6089 107.695C66.6089 107.652 66.6089 107.568 66.6089 107.445C66.6089 107.323 66.6089 107.234 66.6089 107.192C66.6148 106.909 66.518 106.633 66.3364 106.416C66.1548 106.244 65.9143 106.148 65.6643 106.148C65.4143 106.148 65.1739 106.244 64.9923 106.416C64.8107 106.633 64.7139 106.909 64.7197 107.192V107.69C64.713 107.973 64.8099 108.249 64.9923 108.465C65.1739 108.637 65.4143 108.733 65.6643 108.733C65.9143 108.733 66.1548 108.637 66.3364 108.465V108.47ZM64.5365 108.827C64.2643 108.526 64.115 108.134 64.1182 107.727V107.445V107.159C64.116 106.753 64.269 106.361 64.5459 106.064C64.8575 105.797 65.2542 105.65 65.6643 105.65C66.0745 105.65 66.4712 105.797 66.7828 106.064C67.0597 106.361 67.2127 106.753 67.2104 107.159C67.2104 107.257 67.2104 107.351 67.2104 107.445C67.2104 107.539 67.2104 107.633 67.2104 107.727C67.2136 108.134 67.0644 108.526 66.7922 108.827C66.4755 109.091 66.0765 109.236 65.6643 109.236C65.2522 109.236 64.8531 109.091 64.5365 108.827ZM62.5392 108.47C62.7223 108.254 62.8178 107.977 62.8071 107.695C62.8071 107.652 62.8071 107.568 62.8071 107.445C62.8071 107.323 62.8071 107.234 62.8071 107.192C62.8169 106.909 62.7215 106.633 62.5392 106.416C62.453 106.326 62.3484 106.255 62.2324 106.209C62.1164 106.163 61.9919 106.142 61.8672 106.148C61.7419 106.142 61.6167 106.163 61.5 106.209C61.3833 106.255 61.2778 106.326 61.1905 106.416C61.012 106.635 60.9171 106.91 60.9226 107.192V107.69C60.9163 107.972 61.0113 108.247 61.1905 108.465C61.2778 108.556 61.3833 108.626 61.5 108.672C61.6167 108.718 61.7419 108.739 61.8672 108.733C61.9924 108.743 62.1181 108.725 62.2357 108.681C62.3533 108.637 62.4601 108.568 62.5486 108.479L62.5392 108.47ZM60.7393 108.827C60.4655 108.527 60.316 108.134 60.3211 107.727V107.445V107.159C60.3169 106.752 60.4702 106.36 60.7487 106.064C61.0604 105.797 61.457 105.65 61.8672 105.65C62.2774 105.65 62.6741 105.797 62.9857 106.064C63.2626 106.361 63.4156 106.753 63.4133 107.159C63.4133 107.257 63.4133 107.351 63.4133 107.445C63.4133 107.539 63.4133 107.633 63.4133 107.727C63.4148 108.134 63.2639 108.526 62.9904 108.827C62.6749 109.092 62.2764 109.236 61.8649 109.236C61.4533 109.236 61.0549 109.092 60.7393 108.827ZM58.6011 108.385C58.7623 108.176 58.8529 107.921 58.8596 107.657C58.8596 107.615 58.8596 107.539 58.8596 107.422C58.8596 107.304 58.8596 107.239 58.8596 107.196C58.8528 106.934 58.7623 106.68 58.6011 106.473C58.5173 106.369 58.41 106.288 58.2881 106.235C58.1663 106.181 58.0335 106.158 57.9009 106.167C57.7693 106.156 57.6371 106.178 57.5163 106.231C57.3956 106.285 57.2902 106.368 57.2101 106.473C57.055 106.703 56.9716 106.975 56.9704 107.253V107.605C56.9716 107.883 57.055 108.155 57.2101 108.385C57.2905 108.49 57.396 108.572 57.5168 108.625C57.6376 108.677 57.7697 108.699 57.9009 108.686C58.0339 108.699 58.1679 108.679 58.2915 108.628C58.4151 108.577 58.5245 108.497 58.6105 108.395L58.6011 108.385ZM57.0315 110.444C56.8397 110.348 56.6773 110.202 56.5616 110.021C56.4834 109.897 56.4382 109.754 56.43 109.607C56.4307 109.569 56.4458 109.532 56.4723 109.504C56.502 109.477 56.5404 109.462 56.5804 109.462H56.8717C56.8895 109.46 56.9075 109.462 56.9245 109.468C56.9414 109.474 56.9571 109.483 56.9704 109.495C57.0044 109.523 57.029 109.56 57.0409 109.603C57.0997 109.774 57.2151 109.92 57.3681 110.016C57.521 110.113 57.7024 110.154 57.8821 110.134C58.1455 110.155 58.4077 110.08 58.6199 109.922C58.7102 109.821 58.7781 109.701 58.8194 109.572C58.8607 109.442 58.8744 109.305 58.8596 109.17V108.7C58.7298 108.858 58.5647 108.982 58.3777 109.064C58.1907 109.146 57.9871 109.182 57.7834 109.17C57.5831 109.183 57.3827 109.146 57.1994 109.065C57.0161 108.983 56.8553 108.858 56.7307 108.7C56.4855 108.37 56.3551 107.969 56.3595 107.558V107.192C56.3561 106.782 56.4864 106.383 56.7307 106.054C56.8548 105.896 57.0155 105.771 57.1989 105.689C57.3823 105.607 57.583 105.571 57.7834 105.584C57.9931 105.575 58.2019 105.616 58.3919 105.706C58.5818 105.795 58.7472 105.929 58.8737 106.097V105.81C58.8735 105.768 58.8885 105.728 58.916 105.697C58.9444 105.668 58.9832 105.651 59.0241 105.65H59.3107C59.3515 105.651 59.3904 105.668 59.4188 105.697C59.4463 105.728 59.4613 105.768 59.4611 105.81V109.1C59.4611 110.12 58.9489 110.632 57.915 110.632C57.6132 110.648 57.3123 110.586 57.0409 110.453L57.0315 110.444Z" fill="#4A4A4A"/>
<path d="M142.898 70.4192H8.61719V96.885H142.898V70.4192Z" fill="#4385F4"/>
<path d="M47.6135 81.116V76.4583H45.9688V75.4854H50.4426V76.4583H48.8166V81.116H47.6135Z" fill="white"/>
<path d="M56.0372 78.3017C56.0372 80.0924 54.9892 81.2157 53.3209 81.2157C51.6526 81.2157 50.6094 80.0924 50.6094 78.3017C50.6094 76.511 51.6526 75.3877 53.3209 75.3877C54.9892 75.3877 56.0372 76.511 56.0372 78.3017ZM51.8077 78.3017C51.8077 79.4814 52.3999 80.2287 53.3209 80.2287C54.242 80.2287 54.8342 79.4814 54.8342 78.3017C54.8342 77.122 54.242 76.37 53.3209 76.37C52.3999 76.37 51.8077 77.1408 51.8077 78.3017Z" fill="white"/>
<path d="M59.1622 75.486C59.4203 75.4705 59.6788 75.5095 59.9209 75.6006C60.1629 75.6916 60.3831 75.8326 60.5671 76.0144C60.751 76.1962 60.8947 76.4147 60.9886 76.6556C61.0826 76.8966 61.1248 77.1546 61.1125 77.413C61.1197 77.6753 61.0719 77.9361 60.9722 78.1789C60.8726 78.4216 60.7232 78.6407 60.5337 78.8222C60.3443 79.0037 60.1189 79.1436 59.8722 79.2327C59.6255 79.3219 59.3628 79.3584 59.1011 79.34H57.9921V81.1166H56.8125V75.4766L59.1622 75.486ZM57.9921 78.4188H58.8473C58.9788 78.4188 59.109 78.3929 59.2304 78.3426C59.3518 78.2923 59.4622 78.2185 59.5551 78.1256C59.6481 78.0326 59.7218 77.9222 59.7721 77.8008C59.8224 77.6793 59.8483 77.5491 59.8483 77.4177C59.8483 77.2862 59.8224 77.156 59.7721 77.0346C59.7218 76.9131 59.6481 76.8027 59.5551 76.7098C59.4622 76.6168 59.3518 76.5431 59.2304 76.4928C59.109 76.4425 58.9788 76.4166 58.8473 76.4166H57.9921V78.4188Z" fill="white"/>
<path d="M64.4294 79.5143C64.4811 79.9843 64.9651 80.2804 65.5901 80.2804C66.2152 80.2804 66.6475 79.9796 66.6475 79.566C66.6475 79.1524 66.3796 78.9973 65.7076 78.8469L64.9745 78.6871C63.9359 78.4615 63.4284 77.9351 63.4284 77.1126C63.4284 76.0739 64.3213 75.3877 65.5807 75.3877C66.8402 75.3877 67.7143 76.0645 67.7331 77.0844H66.6287C66.5911 76.6144 66.1588 76.3183 65.5854 76.3183C65.0121 76.3183 64.6127 76.5956 64.6127 77.0139C64.6127 77.357 64.8852 77.5544 65.5525 77.7001L66.234 77.8458C67.3618 78.0902 67.8553 78.5743 67.8553 79.4297C67.8553 80.5248 66.9671 81.2157 65.5713 81.2157C64.1756 81.2157 63.3532 80.5718 63.3203 79.5143H64.4294Z" fill="white"/>
<path d="M73.8028 78.3017C73.8028 80.0924 72.7548 81.2157 71.0866 81.2157C69.4183 81.2157 68.375 80.0924 68.375 78.3017C68.375 76.511 69.4183 75.3877 71.0866 75.3877C72.7548 75.3877 73.8028 76.511 73.8028 78.3017ZM69.5733 78.3017C69.5733 79.4814 70.1655 80.2287 71.0866 80.2287C72.0076 80.2287 72.5998 79.4814 72.5998 78.3017C72.5998 77.122 72.0076 76.37 71.0866 76.37C70.1655 76.37 69.5733 77.1408 69.5733 78.3017Z" fill="white"/>
<path d="M74.5547 81.1166V75.4766H78.2437V76.4495H75.7342V77.9582H78.0229V78.8982H75.7342V81.1166H74.5547Z" fill="white"/>
<path d="M80.3089 81.116V76.4583H78.6641V75.4854H83.1285V76.4583H81.479V81.116H80.3089Z" fill="white"/>
<path d="M86.0879 81.1166H84.9788L83.4844 75.4766H84.7062L85.5944 79.5515H85.6226L86.6753 75.4766H87.6715L88.7242 79.5515H88.7665L89.6547 75.4766H90.8765L89.3821 81.1166H88.2684L87.2016 77.2673H87.1687L86.0879 81.1166Z" fill="white"/>
<path d="M94.2279 79.7489H92.2495L91.8171 81.1166H90.6094L92.5643 75.4766H93.9319L95.8868 81.1166H94.6368L94.2279 79.7489ZM92.522 78.87H93.993L93.2693 76.5623H93.2411L92.522 78.87Z" fill="white"/>
<path d="M97.6639 81.1166H96.4844V75.4766H98.8341C100.131 75.4766 100.869 76.1581 100.869 77.272C100.884 77.6109 100.794 77.9461 100.611 78.2321C100.429 78.518 100.163 78.7408 99.8491 78.87L101.033 81.1072H99.6988L98.6367 79.058H97.6968L97.6639 81.1166ZM97.6639 78.2026H98.6978C98.821 78.2166 98.9458 78.2034 99.0633 78.1639C99.1808 78.1244 99.2883 78.0595 99.3779 77.9738C99.4676 77.8882 99.5374 77.7839 99.5822 77.6683C99.6271 77.5527 99.6461 77.4286 99.6377 77.3049C99.6428 77.182 99.6217 77.0593 99.5757 76.9452C99.5297 76.8311 99.4599 76.7282 99.3709 76.6432C99.282 76.5582 99.1759 76.4932 99.0598 76.4525C98.9438 76.4118 98.8203 76.3964 98.6978 76.4072H97.678L97.6639 78.2026Z" fill="white"/>
<path d="M105.344 81.1166H101.617V75.4766H105.344V76.4495H102.792V77.8078H105.212V78.7102H102.806V80.1202H105.358L105.344 81.1166Z" fill="white"/>
<path d="M29.0821 85.0741C30.7739 85.0741 31.7655 86.0799 31.7655 87.8659C31.7655 89.6519 30.7739 90.6859 29.0821 90.6859H26.9062V85.0459L29.0821 85.0741ZM28.0905 89.7271H28.9411C29.9938 89.7271 30.5671 89.0879 30.5671 87.8706C30.5671 86.6533 29.9703 86.0705 28.9317 86.0705H28.0811L28.0905 89.7271Z" fill="white"/>
<path d="M36.247 90.7045H32.5156V85.0645H36.247V86.0703H33.6952V87.4286H36.1013V88.331H33.6952V89.741H36.247V90.7045Z" fill="white"/>
<path d="M38.6298 90.7045L36.75 85.0645H38.0705L39.3582 89.4825H39.3864L40.674 85.0645H41.957L40.0772 90.7045H38.6298Z" fill="white"/>
<path d="M46.2423 90.7045H42.5156V85.0645H46.2423V86.0703H43.6905V87.4286H46.1013V88.331H43.6905V89.741H46.2423V90.7045Z" fill="white"/>
<path d="M50.7358 90.7045H47.0938V85.0645H48.2733V89.7175H50.7358V90.7045Z" fill="white"/>
<path d="M56.4481 87.8896C56.4481 89.6803 55.3955 90.8036 53.7319 90.8036C52.0683 90.8036 51.0156 89.6803 51.0156 87.8896C51.0156 86.0989 52.0636 84.9756 53.7319 84.9756C55.4002 84.9756 56.4481 86.0989 56.4481 87.8896ZM52.2187 87.8896C52.2187 89.0693 52.8061 89.8166 53.7319 89.8166C54.6577 89.8166 55.2404 89.0693 55.2404 87.8896C55.2404 86.7099 54.653 85.9626 53.7319 85.9626C52.8108 85.9626 52.2187 86.7099 52.2187 87.8896Z" fill="white"/>
<path d="M59.5512 85.0743C59.8108 85.0572 60.071 85.0955 60.3146 85.1865C60.5583 85.2775 60.7798 85.4193 60.9646 85.6023C61.1494 85.7853 61.2932 86.0055 61.3866 86.2483C61.48 86.4911 61.5207 86.7509 61.5062 87.0107C61.5134 87.2725 61.4657 87.533 61.3663 87.7754C61.2669 88.0177 61.118 88.2367 60.9291 88.4181C60.7401 88.5995 60.5154 88.7395 60.2692 88.8289C60.023 88.9184 59.7609 88.9555 59.4996 88.9377H58.3858V90.7143H57.2109V85.0743H59.5512ZM58.3811 88.0071H59.2364C59.5019 88.0071 59.7565 87.9016 59.9442 87.7139C60.1319 87.5261 60.2374 87.2715 60.2374 87.006C60.2374 86.7405 60.1319 86.4858 59.9442 86.2981C59.7565 86.1103 59.5019 86.0049 59.2364 86.0049H58.3764L58.3811 88.0071Z" fill="white"/>
<path d="M68.1605 90.7045H67.1078V86.9022H67.0796L65.5476 90.6622H64.7957L63.2684 86.9022H63.2355V90.7045H62.1875V85.0645H63.555L65.1528 89.0548H65.1857L66.7835 85.0645H68.1511L68.1605 90.7045Z" fill="white"/>
<path d="M72.8204 90.7045H69.0938V85.0645H72.8204V86.0703H70.2686V87.4286H72.6794V88.331H70.2686V89.741H72.8204V90.7045Z" fill="white"/>
<path d="M73.6719 90.7045V85.0645H74.6635L77.2951 88.7305H77.328V85.0645H78.423V90.7045H77.4831L74.8514 87.0197H74.8138V90.7045H73.6719Z" fill="white"/>
<path d="M80.7464 90.7048V86.0706H79.1016V85.0977H83.5942V86.0706H81.9447V90.7283L80.7464 90.7048Z" fill="white"/>
<path d="M85.7734 87.8896C85.7734 86.0754 86.8026 84.9756 88.4333 84.9756C89.7867 84.9756 90.8206 85.8357 90.9099 87.0953H89.7632C89.7226 86.7739 89.564 86.4791 89.3182 86.268C89.0725 86.057 88.7571 85.9448 88.4333 85.9532C87.5451 85.9532 86.9718 86.6958 86.9718 87.8849C86.9718 89.074 87.5357 89.826 88.438 89.826C88.7537 89.8437 89.0648 89.7434 89.3106 89.5444C89.5564 89.3455 89.7194 89.0622 89.7679 88.7497H90.9146C90.7783 90.0046 89.8149 90.8036 88.4333 90.8036C86.7979 90.8036 85.7734 89.7038 85.7734 87.8896Z" fill="white"/>
<path d="M96.8888 87.8896C96.8888 89.6803 95.8408 90.8036 94.1725 90.8036C92.5042 90.8036 91.4609 89.6803 91.4609 87.8896C91.4609 86.0989 92.5042 84.9756 94.1725 84.9756C95.8408 84.9756 96.8888 86.0989 96.8888 87.8896ZM92.6593 87.8896C92.6593 89.0693 93.2514 89.8166 94.1725 89.8166C95.0936 89.8166 95.6857 89.0693 95.6857 87.8896C95.6857 86.7099 95.0936 85.9626 94.1725 85.9626C93.2514 85.9626 92.6593 86.7099 92.6593 87.8896Z" fill="white"/>
<path d="M103.607 90.7045H102.559V86.9022H102.531L100.999 90.6622H100.257L98.7293 86.9022H98.6964V90.7045H97.6484V85.0645H99.016L100.614 89.0548H100.647L102.244 85.0645H103.607V90.7045Z" fill="white"/>
<path d="M106.892 85.0739C107.15 85.0576 107.409 85.0962 107.651 85.187C107.894 85.2777 108.114 85.4187 108.298 85.6006C108.483 85.7826 108.626 86.0014 108.72 86.2427C108.814 86.484 108.855 86.7423 108.842 87.0009C108.849 87.2627 108.802 87.5232 108.702 87.7656C108.603 88.0079 108.454 88.2268 108.265 88.4083C108.076 88.5897 107.851 88.7297 107.605 88.8191C107.359 88.9086 107.097 88.9456 106.835 88.9279H105.722V90.7045H104.547V85.0645L106.892 85.0739ZM105.722 88.0067H106.577C106.843 88.0067 107.097 87.9012 107.285 87.7134C107.473 87.5257 107.578 87.2711 107.578 87.0056C107.578 86.7401 107.473 86.4854 107.285 86.2977C107.097 86.1099 106.843 86.0045 106.577 86.0045H105.717L105.722 88.0067Z" fill="white"/>
<path d="M112.265 89.3602H110.292L109.864 90.7279H108.656L110.611 85.0879H111.993L113.952 90.7279H112.698L112.265 89.3602ZM110.541 88.4813H112.012L111.293 86.1736H111.264L110.541 88.4813Z" fill="white"/>
<path d="M114.523 90.7045V85.0645H115.506L118.137 88.7305H118.165V85.0645H119.312V90.7045H118.339L115.684 87.0103H115.651V90.6951L114.523 90.7045Z" fill="white"/>
<path d="M121.827 90.7048V88.5992L119.867 85.0742H121.15L122.41 87.4806H122.438L123.702 85.0789H124.947L122.983 88.6039V90.7095L121.827 90.7048Z" fill="white"/>
</svg>
