<svg width="167" height="179" viewBox="0 0 167 179" fill="none" xmlns="http://www.w3.org/2000/svg">
<path d="M27.4353 125V117.668H30.0613V116.329H23.2883V117.668H25.9143V125H27.4353ZM35.0632 125.156C37.6632 125.156 39.4962 123.258 39.4962 120.671C39.4962 118.084 37.6632 116.186 35.0632 116.186C32.4632 116.186 30.6302 118.084 30.6302 120.671C30.6302 123.258 32.4632 125.156 35.0632 125.156ZM35.0632 123.804C33.3082 123.804 32.1902 122.452 32.1902 120.671C32.1902 118.877 33.3082 117.538 35.0632 117.538C36.8052 117.538 37.9362 118.877 37.9362 120.671C37.9362 122.452 36.8052 123.804 35.0632 123.804ZM42.4816 125V121.763H44.7696C46.5766 121.763 47.6036 120.515 47.6036 119.046C47.6036 117.577 46.5896 116.329 44.7696 116.329H40.9606V125H42.4816ZM44.5616 120.424H42.4816V117.668H44.5616C45.4196 117.668 46.0436 118.214 46.0436 119.046C46.0436 119.878 45.4196 120.424 44.5616 120.424ZM56.2516 125.156C58.8516 125.156 60.6846 123.258 60.6846 120.671C60.6846 118.084 58.8516 116.186 56.2516 116.186C53.6516 116.186 51.8186 118.084 51.8186 120.671C51.8186 123.258 53.6516 125.156 56.2516 125.156ZM56.2516 123.804C54.4966 123.804 53.3786 122.452 53.3786 120.671C53.3786 118.877 54.4966 117.538 56.2516 117.538C57.9936 117.538 59.1246 118.877 59.1246 120.671C59.1246 122.452 57.9936 123.804 56.2516 123.804ZM65.9061 125.156C68.4151 125.156 69.6501 123.726 69.6501 121.568V116.329H68.1161V121.529C68.1161 122.907 67.3491 123.804 65.9061 123.804C64.4501 123.804 63.6831 122.907 63.6831 121.529V116.329H62.1491V121.581C62.1491 123.713 63.3841 125.156 65.9061 125.156ZM75.0808 125V117.668H77.7068V116.329H70.9338V117.668H73.5598V125H75.0808ZM81.8963 125.156C84.2363 125.156 85.2503 123.921 85.2503 122.478C85.2503 119.241 80.2063 120.242 80.2063 118.63C80.2063 117.98 80.7783 117.551 81.6753 117.551C82.5853 117.551 83.5083 117.863 84.1843 118.539L85.0553 117.408C84.2493 116.628 83.1573 116.199 81.8053 116.199C79.9073 116.199 78.6463 117.304 78.6463 118.734C78.6463 121.932 83.7033 120.801 83.7033 122.621C83.7033 123.193 83.2093 123.804 81.9613 123.804C80.7523 123.804 79.8163 123.245 79.2183 122.608L78.3733 123.778C79.1403 124.597 80.2973 125.156 81.8963 125.156ZM90.694 125.156C93.294 125.156 95.127 123.258 95.127 120.671C95.127 118.084 93.294 116.186 90.694 116.186C88.094 116.186 86.261 118.084 86.261 120.671C86.261 123.258 88.094 125.156 90.694 125.156ZM90.694 123.804C88.939 123.804 87.821 122.452 87.821 120.671C87.821 118.877 88.939 117.538 90.694 117.538C92.436 117.538 93.567 118.877 93.567 120.671C93.567 122.452 92.436 123.804 90.694 123.804ZM100.348 125.156C102.857 125.156 104.092 123.726 104.092 121.568V116.329H102.558V121.529C102.558 122.907 101.791 123.804 100.348 123.804C98.8925 123.804 98.1255 122.907 98.1255 121.529V116.329H96.5915V121.581C96.5915 123.713 97.8265 125.156 100.348 125.156ZM112.643 125L110.524 121.594C111.564 121.425 112.578 120.593 112.578 119.046C112.578 117.447 111.46 116.329 109.744 116.329H105.935V125H107.456V121.763H108.964L110.888 125H112.643ZM109.536 120.424H107.456V117.668H109.536C110.394 117.668 111.018 118.214 111.018 119.046C111.018 119.878 110.394 120.424 109.536 120.424ZM118.258 125.156C120.013 125.156 121.079 124.246 121.742 123.206L120.442 122.543C120.026 123.271 119.194 123.804 118.258 123.804C116.542 123.804 115.268 122.491 115.268 120.671C115.268 118.851 116.542 117.538 118.258 117.538C119.194 117.538 120.026 118.084 120.442 118.799L121.742 118.136C121.092 117.096 120.013 116.186 118.258 116.186C115.697 116.186 113.708 118.006 113.708 120.671C113.708 123.336 115.697 125.156 118.258 125.156ZM124.481 125V116.329H122.96V125H124.481ZM133.838 125V116.329H132.317V122.348L127.884 116.329H126.324V125H127.845V118.812L132.369 125H133.838ZM139.84 125.169C141.348 125.169 142.557 124.545 143.415 123.596V120.346H139.307V121.685H141.894V123.037C141.504 123.401 140.724 123.817 139.84 123.817C138.124 123.817 136.85 122.491 136.85 120.671C136.85 118.851 138.124 117.538 139.84 117.538C140.815 117.538 141.634 118.045 142.089 118.695L143.337 117.993C142.635 116.992 141.53 116.186 139.84 116.186C137.331 116.186 135.29 117.954 135.29 120.671C135.29 123.388 137.331 125.169 139.84 125.169ZM5.51493 140.156C7.85493 140.156 8.86893 138.921 8.86893 137.478C8.86893 134.241 3.82493 135.242 3.82493 133.63C3.82493 132.98 4.39693 132.551 5.29393 132.551C6.20393 132.551 7.12693 132.863 7.80293 133.539L8.67393 132.408C7.86793 131.628 6.77593 131.199 5.42393 131.199C3.52593 131.199 2.26493 132.304 2.26493 133.734C2.26493 136.932 7.32193 135.801 7.32193 137.621C7.32193 138.193 6.82793 138.804 5.57993 138.804C4.37093 138.804 3.43493 138.245 2.83693 137.608L1.99193 138.778C2.75893 139.597 3.91593 140.156 5.51493 140.156ZM14.3127 140.156C16.9127 140.156 18.7457 138.258 18.7457 135.671C18.7457 133.084 16.9127 131.186 14.3127 131.186C11.7127 131.186 9.87968 133.084 9.87968 135.671C9.87968 138.258 11.7127 140.156 14.3127 140.156ZM14.3127 138.804C12.5577 138.804 11.4397 137.452 11.4397 135.671C11.4397 133.877 12.5577 132.538 14.3127 132.538C16.0547 132.538 17.1857 133.877 17.1857 135.671C17.1857 137.452 16.0547 138.804 14.3127 138.804ZM21.7311 140V136.256H26.0601V134.917H21.7311V132.668H26.1511V131.329H20.2101V140H21.7311ZM31.0979 140V132.668H33.7239V131.329H26.9509V132.668H29.5769V140H31.0979ZM43.2678 140L45.7378 131.329H44.0348L42.3578 138.011L40.5638 131.329H39.3548L37.5608 138.011L35.8708 131.329H34.1678L36.6508 140H38.2758L39.9528 133.604L41.6428 140H43.2678ZM53.972 140L50.566 131.329H48.668L45.262 140H46.991L47.628 138.336H51.606L52.243 140H53.972ZM51.177 136.997H48.057L49.617 132.863L51.177 136.997ZM61.6271 140L59.5081 136.594C60.5481 136.425 61.5621 135.593 61.5621 134.046C61.5621 132.447 60.4441 131.329 58.7281 131.329H54.9191V140H56.4401V136.763H57.9481L59.8721 140H61.6271ZM58.5201 135.424H56.4401V132.668H58.5201C59.3781 132.668 60.0021 133.214 60.0021 134.046C60.0021 134.878 59.3781 135.424 58.5201 135.424ZM69.0232 140V138.661H64.6032V136.256H68.9322V134.917H64.6032V132.668H69.0232V131.329H63.0822V140H69.0232ZM77.148 140C79.852 140 81.685 138.219 81.685 135.671C81.685 133.123 79.852 131.329 77.148 131.329H73.924V140H77.148ZM77.148 138.661H75.445V132.668H77.148C79.085 132.668 80.125 133.994 80.125 135.671C80.125 137.309 79.033 138.661 77.148 138.661ZM89.0945 140V138.661H84.6745V136.256H89.0035V134.917H84.6745V132.668H89.0945V131.329H83.1535V140H89.0945ZM95.0504 140L98.4564 131.329H96.7274L94.1014 138.349L91.4754 131.329H89.7464L93.1524 140H95.0504ZM105.344 140V138.661H100.924V136.256H105.253V134.917H100.924V132.668H105.344V131.329H99.4035V140H105.344ZM112.249 140V138.661H108.427V131.329H106.906V140H112.249ZM117.272 140.156C119.872 140.156 121.705 138.258 121.705 135.671C121.705 133.084 119.872 131.186 117.272 131.186C114.672 131.186 112.839 133.084 112.839 135.671C112.839 138.258 114.672 140.156 117.272 140.156ZM117.272 138.804C115.517 138.804 114.399 137.452 114.399 135.671C114.399 133.877 115.517 132.538 117.272 132.538C119.014 132.538 120.145 133.877 120.145 135.671C120.145 137.452 119.014 138.804 117.272 138.804ZM124.69 140V136.763H126.978C128.785 136.763 129.812 135.515 129.812 134.046C129.812 132.577 128.798 131.329 126.978 131.329H123.169V140H124.69ZM126.77 135.424H124.69V132.668H126.77C127.628 132.668 128.252 133.214 128.252 134.046C128.252 134.878 127.628 135.424 126.77 135.424ZM140.087 140V131.329H137.942L135.576 137.036L133.223 131.329H131.078V140H132.599V133.565L135.251 140H135.901L138.566 133.565V140H140.087ZM147.874 140V138.661H143.454V136.256H147.783V134.917H143.454V132.668H147.874V131.329H141.933V140H147.874ZM156.95 140V131.329H155.429V137.348L150.996 131.329H149.436V140H150.957V133.812L155.481 140H156.95ZM162.38 140V132.668H165.006V131.329H158.233V132.668H160.859V140H162.38ZM51.9443 155.156C53.6993 155.156 54.7653 154.246 55.4283 153.206L54.1283 152.543C53.7123 153.271 52.8803 153.804 51.9443 153.804C50.2283 153.804 48.9543 152.491 48.9543 150.671C48.9543 148.851 50.2283 147.538 51.9443 147.538C52.8803 147.538 53.7123 148.084 54.1283 148.799L55.4283 148.136C54.7783 147.096 53.6993 146.186 51.9443 146.186C49.3833 146.186 47.3943 148.006 47.3943 150.671C47.3943 153.336 49.3833 155.156 51.9443 155.156ZM60.6887 155.156C63.2887 155.156 65.1217 153.258 65.1217 150.671C65.1217 148.084 63.2887 146.186 60.6887 146.186C58.0887 146.186 56.2557 148.084 56.2557 150.671C56.2557 153.258 58.0887 155.156 60.6887 155.156ZM60.6887 153.804C58.9337 153.804 57.8157 152.452 57.8157 150.671C57.8157 148.877 58.9337 147.538 60.6887 147.538C62.4307 147.538 63.5617 148.877 63.5617 150.671C63.5617 152.452 62.4307 153.804 60.6887 153.804ZM75.5951 155V146.329H73.4501L71.0841 152.036L68.7311 146.329H66.5861V155H68.1071V148.565L70.7591 155H71.4091L74.0741 148.565V155H75.5951ZM78.9616 155V151.763H81.2496C83.0566 151.763 84.0836 150.515 84.0836 149.046C84.0836 147.577 83.0696 146.329 81.2496 146.329H77.4406V155H78.9616ZM81.0416 150.424H78.9616V147.668H81.0416C81.8996 147.668 82.5236 148.214 82.5236 149.046C82.5236 149.878 81.8996 150.424 81.0416 150.424ZM92.1722 155L88.7662 146.329H86.8682L83.4622 155H85.1912L85.8282 153.336H89.8062L90.4432 155H92.1722ZM89.3772 151.997H86.2572L87.8172 147.863L89.3772 151.997ZM100.633 155V146.329H99.1123V152.348L94.6793 146.329H93.1193V155H94.6403V148.812L99.1643 155H100.633ZM103.997 155V146.329H102.476V155H103.997ZM111.781 155V153.661H107.361V151.256H111.69V149.917H107.361V147.668H111.781V146.329H105.84V155H111.781ZM116.307 155.156C118.647 155.156 119.661 153.921 119.661 152.478C119.661 149.241 114.617 150.242 114.617 148.63C114.617 147.98 115.189 147.551 116.086 147.551C116.996 147.551 117.919 147.863 118.595 148.539L119.466 147.408C118.66 146.628 117.568 146.199 116.216 146.199C114.318 146.199 113.057 147.304 113.057 148.734C113.057 151.932 118.114 150.801 118.114 152.621C118.114 153.193 117.62 153.804 116.372 153.804C115.163 153.804 114.227 153.245 113.629 152.608L112.784 153.778C113.551 154.597 114.708 155.156 116.307 155.156Z" fill="black"/>
<path d="M84.765 68.6657C84.5774 68.6657 84.5774 68.4649 84.765 68.6657L83.827 68.0633L83.6394 67.8625L61.5036 50.9972C61.5036 50.9972 61.3161 50.9973 61.3161 50.7965L60.9409 50.3949L60.7533 50.1941H60.3781L54 45.3755L66.5686 47.3833C67.1314 47.3833 67.319 47.584 67.8817 47.7848C68.0693 47.7848 68.4445 47.9856 68.4445 47.9856C69.0073 48.1864 69.1949 48.3872 69.5701 48.5879C69.9453 48.7887 70.1328 48.9895 70.508 49.1903C70.6956 49.391 71.0708 49.5918 71.0708 49.7926C71.2584 49.9934 71.446 49.9934 71.6336 50.1941C72.0088 50.3949 72.1963 50.5957 72.1963 50.7965C72.7591 51.3988 73.1343 52.0011 73.6971 52.4027L83.6394 67.461L83.827 67.6618L84.765 68.6657Z" fill="#18AAD1"/>
<path d="M84.7649 91.9559L83.8269 90.3497L83.6393 90.1489L54.1875 45.3755L60.5656 50.1942L61.6912 50.9973L83.8269 67.8626H84.0145L84.7649 68.4649C84.7649 68.4649 84.9525 68.4649 84.9525 68.6657L85.8904 67.8626L115.717 45.3755L85.7028 90.3497L85.5153 90.5505L84.7649 91.9559Z" fill="url(#paint0_linear)"/>
<path d="M84.7649 61.0358L83.8269 59.4296L83.6393 59.2288L76.3232 48.3868L83.6393 49.993H83.8269L84.7649 50.1938L85.7028 49.993L92.8313 48.186L85.7028 59.4296V59.6304L84.7649 61.0358Z" fill="#18AAD1"/>
<path d="M115.905 45.1748L106.525 46.5802L102.961 47.1826C100.147 47.5841 97.5209 49.1904 95.8325 51.8005L85.8902 67.0595L85.7026 67.2603L84.7646 68.6658L85.8902 67.4611L86.0778 67.2603L84.7646 68.6658L110.089 49.3911L115.905 45.1748Z" fill="#18AAD1"/>
<path d="M89.4547 13.4521C89.4547 22.2862 75.1978 26.9041 75.1978 36.3406C75.0102 38.5492 75.573 40.7577 76.5109 42.7655C76.5109 42.7655 71.0708 37.1437 71.0708 31.1204C71.0708 25.0971 76.3233 16.0622 76.3233 16.0622C76.3233 20.0777 77.8241 21.2824 79.3248 21.4831H79.5124C81.2007 21.4831 82.1387 20.0777 82.1387 18.0699C82.1387 16.0622 80.0752 14.0544 80.0752 10.0389C80.0752 6.22409 84.5774 0 84.5774 0C87.7664 4.01554 89.4547 8.63341 89.4547 13.4521Z" fill="#2AD2FF"/>
<path d="M85.5155 45.5768C81.0134 45.5768 77.6367 41.762 77.6367 37.1441V36.9434C77.6367 26.7037 90.9557 25.6998 90.9557 11.8462C91.3309 12.4485 94.8951 17.6687 94.8951 23.2905C94.8951 30.3177 88.7046 32.1247 88.7046 35.5379C88.7046 36.9434 89.2674 37.9472 91.1433 37.9472C91.3309 37.9472 91.5185 37.9472 91.706 37.7465C95.2703 36.1402 97.709 32.5263 97.8965 28.3099C97.8965 28.5107 99.7725 45.5768 85.5155 45.5768Z" fill="#2AD2FF"/>
<path d="M91.3307 37.9473C91.5183 37.9473 91.7058 37.9473 91.8934 37.7465C90.0175 38.3488 83.0767 40.1558 83.0767 34.9356C83.0767 28.5107 93.3942 27.1053 93.3942 21.6843C93.3942 18.2711 92.6438 14.8579 90.9555 11.8462C91.3307 12.4485 94.8949 17.6687 94.8949 23.2905C94.8949 30.3177 88.7044 32.1247 88.7044 35.5379C88.892 36.9434 89.6423 37.9473 91.3307 37.9473Z" fill="#18AAD1"/>
<path d="M85.3781 17.0661C85.3781 22.0855 79.3752 21.684 79 21.4832H79.5628C81.2511 21.4832 82.189 20.0778 82.189 18.07C82.189 16.0622 80.1255 14.0544 80.1255 10.0389C80.1255 6.2241 84.6277 0 84.6277 0C83.127 2.61011 82.3766 5.42099 82.189 8.23188C82.189 12.8498 85.3781 13.2513 85.3781 17.0661Z" fill="#18AAD1"/>
<path d="M81.9512 104.806L77.8242 101.794H82.8892L84.5775 96.373L86.0782 101.794H91.1432L87.0162 104.806L88.5169 110.026L84.3899 106.813L80.0753 110.026L81.9512 104.806Z" fill="#18AAD1"/>
<path d="M105.127 104.806L101 101.794H106.065L107.753 96.373L109.254 101.794H114.319L110.192 104.806L111.693 110.026L107.566 106.813L103.251 110.026L105.127 104.806Z" fill="#18AAD1"/>
<path d="M128.127 104.806L124 101.794H129.065L130.753 96.373L132.254 101.794H137.319L133.192 104.806L134.693 110.026L130.566 106.813L126.251 110.026L128.127 104.806Z" fill="#18AAD1"/>
<path d="M58.127 104.806L54 101.794H59.065L60.7533 96.373L62.254 101.794H67.319L63.192 104.806L64.6927 110.026L60.5657 106.813L56.4387 110.026L58.127 104.806Z" fill="#18AAD1"/>
<path d="M35.127 104.806L31 101.794H36.065L37.7533 96.373L39.254 101.794H44.319L40.192 104.806L41.6927 110.026L37.5657 106.813L33.4387 110.026L35.127 104.806Z" fill="#18AAD1"/>
<path d="M139.1 160.1H29.7998V178.3H139.1V160.1Z" fill="#0460B5"/>
<path d="M38.2 151H16L20.6 160.1L16 169.2H28.3L28.4 159.3L38.2 151Z" fill="#0460B5"/>
<path d="M130.8 151H152.9L148.3 160.1L152.9 169.2H140.6V159.3L130.8 151Z" fill="#0460B5"/>
<path d="M40.8998 166C41.4998 166.3 41.9998 166.8 42.2998 167.3C42.5998 167.9 42.7998 168.6 42.7998 169.2C42.7998 169.9 42.5998 170.5 42.2998 171.1C41.9998 171.7 41.4998 172.1 40.8998 172.4C40.2998 172.7 39.5998 172.9 38.8998 172.9H35.7998V165.4H38.8998C39.5998 165.5 40.2998 165.6 40.8998 166ZM40.1998 171.4C40.5998 171.2 40.8998 170.9 41.0998 170.5C41.4998 169.7 41.4998 168.7 41.0998 167.9C40.8998 167.5 40.5998 167.2 40.1998 167C39.7998 166.8 39.3998 166.7 38.8998 166.7H37.1998V171.7H38.8998C39.2998 171.7 39.7998 171.6 40.1998 171.4Z" fill="white"/>
<path d="M44 165.5H49.5V166.7H45.5V168.6H49.1V169.8H45.5V171.7H49.7V172.9H44V165.5Z" fill="white"/>
<path d="M54.6998 166.9C54.3998 166.8 53.9998 166.7 53.5998 166.7C53.2998 166.7 52.9998 166.8 52.7998 166.9C52.5998 167 52.4998 167.2 52.4998 167.4C52.4998 167.6 52.5998 167.8 52.6998 167.9C52.7998 168 52.9998 168.2 53.1998 168.2C53.4998 168.3 53.7998 168.4 54.0998 168.5C54.4998 168.6 54.8998 168.8 55.2998 168.9C55.5998 169.1 55.8998 169.3 56.0998 169.6C56.2998 169.9 56.4998 170.3 56.3998 170.8C56.3998 171.2 56.2998 171.7 55.9998 172C55.6998 172.3 55.3998 172.6 54.9998 172.8C54.4998 173 53.9998 173.1 53.4998 173.1C52.8998 173.1 52.2998 173 51.7998 172.8C51.2998 172.6 50.7998 172.3 50.2998 171.9L50.8998 170.7C51.2998 171 51.6998 171.3 52.1998 171.5C52.5998 171.7 53.0998 171.8 53.4998 171.8C53.7998 171.8 54.1998 171.7 54.3998 171.6C54.7998 171.4 54.7998 170.9 54.5998 170.5L54.4998 170.4C54.2998 170.3 54.1998 170.1 53.9998 170.1C53.7998 170 53.4998 169.9 53.0998 169.8C52.6998 169.7 52.2998 169.5 51.8998 169.4C51.5998 169.3 51.2998 169 51.0998 168.8C50.8998 168.5 50.6998 168.1 50.7998 167.7C50.7998 167.3 50.8998 166.9 51.0998 166.6C51.3998 166.3 51.6998 166 52.0998 165.8C52.5998 165.6 53.0998 165.5 53.5998 165.5C54.0998 165.5 54.5998 165.6 54.9998 165.7C55.3998 165.8 55.8998 166 56.2998 166.3L55.6998 167.5C55.4998 167.2 55.0998 167 54.6998 166.9Z" fill="white"/>
<path d="M57.8999 165.5H59.2999V173H57.8999V165.5Z" fill="white"/>
<path d="M66.2 169.2H67.4V172.1C67 172.4 66.5 172.6 66 172.8C65.5 173 65 173.1 64.4 173.1C63.7 173.1 63 172.9 62.4 172.6C61.8 172.3 61.3 171.8 61 171.2C60.6 170.6 60.5 169.9 60.5 169.2C60.5 168.5 60.7 167.8 61 167.3C61.4 166.7 61.9 166.2 62.5 165.9C63.1 165.6 63.8 165.4 64.5 165.4C65 165.4 65.6 165.5 66.1 165.7C66.6 165.9 67.1 166.1 67.4 166.5L66.6 167.6C66.3 167.3 66 167.1 65.6 167C65.2 166.9 64.9 166.8 64.5 166.8C64 166.8 63.6 166.9 63.2 167.1C62 167.8 61.6 169.4 62.3 170.6C62.8 171.4 63.6 171.9 64.5 171.9C64.8 171.9 65 171.9 65.3 171.8C65.6 171.7 65.9 171.6 66.1 171.4L66.2 169.2Z" fill="white"/>
<path d="M74.4002 165.5H75.8002V173H74.5002L70.6002 167.8V173H69.2002V165.5H70.6002L74.5002 170.7L74.4002 165.5Z" fill="white"/>
<path d="M82.3001 173L81.0001 170.8H79.0001V173H77.6001V165.5H80.7001C81.5001 165.4 82.3001 165.7 83.0001 166.1C83.5001 166.6 83.8001 167.3 83.8001 168C83.8001 168.5 83.7001 169 83.4001 169.5C83.1001 169.9 82.7001 170.2 82.3001 170.4L84.0001 172.9L82.3001 173ZM79.0001 169.5H80.7001C81.2001 169.5 81.6001 169.4 82.0001 169.1C82.3001 168.8 82.4001 168.5 82.4001 168.1C82.4001 167.7 82.3001 167.3 82.0001 167.1C81.6001 166.9 81.2001 166.7 80.8001 166.8H79.0001V169.5Z" fill="white"/>
<path d="M87.1001 171.3C87.5001 171.6 88.0001 171.8 88.4001 171.8C88.9001 171.8 89.4001 171.6 89.7001 171.3C90.0001 170.9 90.2001 170.4 90.2001 169.9V165.5H91.6001V169.9C91.6001 170.5 91.5001 171.1 91.2001 171.6C90.9001 172.1 90.5001 172.5 90.1001 172.7C89.6001 173 89.0001 173.1 88.4001 173.1C87.8001 173.1 87.2001 173 86.6001 172.7C86.1001 172.5 85.7001 172.1 85.5001 171.6C85.2001 171.1 85.1001 170.5 85.1001 169.9V165.5H86.5001V169.9C86.6001 170.4 86.8001 170.9 87.1001 171.3Z" fill="white"/>
<path d="M97.0001 166.9C96.7001 166.8 96.3001 166.7 95.9001 166.7C95.6001 166.7 95.3001 166.8 95.1001 166.9C94.9001 167 94.8001 167.2 94.8001 167.4C94.8001 167.6 94.9001 167.8 95.0001 167.9C95.1001 168 95.3001 168.2 95.5001 168.2C95.8001 168.3 96.1001 168.4 96.4001 168.5C96.8001 168.6 97.2001 168.8 97.6001 168.9C97.9001 169.1 98.2001 169.3 98.4001 169.6C98.6001 169.9 98.8001 170.3 98.7001 170.8C98.7001 171.2 98.6001 171.7 98.3001 172C98.0001 172.3 97.7001 172.6 97.3001 172.8C96.8001 173 96.3001 173.1 95.8001 173.1C95.2001 173.1 94.6001 173 94.1001 172.8C93.6001 172.6 93.1001 172.3 92.6001 171.9L93.2001 170.7C93.6001 171 94.0001 171.3 94.5001 171.5C94.9001 171.7 95.4001 171.8 95.8001 171.8C96.1001 171.8 96.5001 171.7 96.7001 171.6C97.1001 171.4 97.1001 170.9 96.9001 170.5L96.8001 170.4C96.6001 170.3 96.5001 170.1 96.3001 170.1C96.1001 170 95.8001 169.9 95.4001 169.8C95.0001 169.7 94.6001 169.5 94.2001 169.4C93.9001 169.3 93.6001 169 93.4001 168.8C93.2001 168.5 93.0001 168.1 93.1001 167.7C93.1001 167.3 93.2001 166.9 93.4001 166.6C93.7001 166.3 94.0001 166 94.4001 165.8C94.9001 165.6 95.4001 165.5 95.9001 165.5C96.4001 165.5 96.9001 165.6 97.3001 165.7C97.7001 165.8 98.2001 166 98.6001 166.3L98.0001 167.5C97.8001 167.2 97.4001 167 97.0001 166.9Z" fill="white"/>
<path d="M100.2 165.5H101.6V168.7H105.3V165.5H106.7V173H105.3V170H101.6V173H100.2V165.5Z" fill="white"/>
<path d="M109.4 171.7C109.5 171.8 109.6 172 109.6 172.3C109.6 172.5 109.5 172.7 109.4 172.9C109.3 173 109.1 173.1 108.9 173.1C108.7 173.1 108.5 173 108.4 172.9C108.3 172.7 108.2 172.5 108.2 172.3C108.2 172.1 108.3 171.9 108.4 171.7C108.5 171.6 108.7 171.5 108.9 171.5C109.1 171.5 109.3 171.6 109.4 171.7Z" fill="white"/>
<path d="M113.4 168.4C113 168.4 112.6 168.6 112.3 168.9C112 169.2 111.9 169.7 111.9 170.1C111.9 170.6 112 171 112.3 171.3C112.6 171.6 113 171.8 113.4 171.8C114 171.8 114.6 171.6 114.9 171.1L115.8 171.8C115.5 172.2 115.2 172.5 114.8 172.7C114.3 172.9 113.8 173 113.3 173C112.8 173 112.3 172.9 111.8 172.6C111.4 172.4 111 172 110.8 171.6C110.3 170.7 110.3 169.5 110.8 168.6C111 168.2 111.4 167.8 111.8 167.6C112.3 167.4 112.8 167.2 113.3 167.2C113.8 167.2 114.3 167.3 114.7 167.5C115.1 167.7 115.4 167.9 115.7 168.3L114.9 169.1C114.6 168.7 114 168.4 113.4 168.4Z" fill="white"/>
<path d="M120.9 167.6C121.3 167.8 121.7 168.2 122 168.6C122.3 169.1 122.4 169.6 122.4 170.1C122.4 170.6 122.3 171.2 122 171.6C121.7 172 121.4 172.4 120.9 172.6C120.4 172.8 119.9 173 119.3 173C118.7 173 118.2 172.9 117.7 172.6C117.3 172.4 116.9 172 116.6 171.6C116.3 171.1 116.2 170.6 116.2 170.1C116.2 169.6 116.3 169 116.6 168.6C116.9 168.2 117.2 167.8 117.7 167.6C118.2 167.3 118.7 167.2 119.3 167.2C119.9 167.2 120.4 167.3 120.9 167.6ZM118.2 168.9C117.6 169.6 117.6 170.7 118.2 171.4C118.5 171.7 118.9 171.9 119.4 171.9C119.8 171.9 120.3 171.7 120.6 171.4C121.2 170.7 121.2 169.6 120.6 168.9C120.3 168.6 119.9 168.4 119.4 168.4C118.9 168.4 118.5 168.5 118.2 168.9Z" fill="white"/>
<path d="M132.6 167.8C133 168.2 133.2 168.8 133.2 169.4V173H131.8V169.8C131.8 169.4 131.7 169.1 131.5 168.8C131.3 168.6 130.9 168.4 130.6 168.4C130.2 168.4 129.8 168.6 129.5 168.9C129.2 169.2 129.1 169.6 129.1 170.1V172.9H127.7V169.8C127.7 169.4 127.6 169.1 127.4 168.8C127.2 168.6 126.8 168.4 126.5 168.4C126.1 168.4 125.7 168.6 125.4 168.9C125.1 169.2 125 169.7 125.1 170.1V172.9H123.7V167.2H125.1V168.3C125.8 167.2 127.3 166.9 128.4 167.5C128.7 167.7 129 168.1 129.1 168.5C129.4 167.6 130.3 167.1 131.2 167.1C131.7 167.1 132.2 167.4 132.6 167.8Z" fill="white"/>
<defs>
<linearGradient id="paint0_linear" x1="84.9525" y1="92.0933" x2="84.9525" y2="67.4496" gradientUnits="userSpaceOnUse">
<stop offset="1" stop-color="#2AD2FF"/>
</linearGradient>
</defs>
</svg>
