<svg fill="none" height="97" viewBox="0 0 198 97" width="198" xmlns="http://www.w3.org/2000/svg"><path d="m120.876 12.7992c-8.162 0-14.839 6.6775-14.839 15.0244 0 8.347 6.677 15.0245 14.839 15.0245 8.161 0 14.839-6.6775 14.839-15.0245 0-8.3469-6.678-15.0244-14.839-15.0244zm0 23.9278c-4.823 0-8.718-3.8952-8.718-8.7179 0-4.8226 3.895-8.7179 8.718-8.7179s8.718 3.8953 8.718 8.7179c0 4.6372-4.081 8.7179-8.718 8.7179zm33.017-16.6938c-4.266 0-7.605 3.5242-7.605 7.7904v14.2826h-6.492v-28.3796h6.492v4.4517s2.782-4.4517 8.347-4.4517h1.855v6.3066zm-64.7359-6.3066 4.8227 19.4762 5.1937-19.4762h6.4925l-8.1619 28.3796h-6.3066l-5.0083-19.8472-5.0081 19.8472h-6.3067l-8.3471-28.3796h6.3067l5.5647 19.4762 4.6373-19.4762z" fill="#4b4b4b"/><path d="m175.409 26.7107c4.452-2.5969 7.606-7.4197 7.606-12.9844h-6.493c0 4.8228-3.895 8.7181-8.532 8.7181h-.928v-22.4444h-6.492v42.1064h6.492v-13.3553h.742c.742 0 1.484.371 1.67.9274l9.089 12.4279h7.605z" fill="#4b4b4b"/><path d="m51.5038 12.7992c-7.0486 0-12.4278 4.6372-14.4682 12.0567-3.3388-5.1936-5.9357-11.1292-7.4196-16.13736h-7.4196v19.66166c0 3.8952-3.1533 7.0485-7.0485 7.0485-3.8953 0-7.04864-3.1533-7.04864-7.0485v-19.66166h-7.419572v19.66166c0 8.1614 6.492132 14.6535 14.468212 14.6535 7.976 0 14.4681-6.4921 14.4681-14.6535v-3.3388c1.4839 2.9678 3.3388 6.1211 5.3792 8.9034l-4.6372 21.702h7.605l3.3389-15.7664c2.9678 1.8549 6.3066 2.9678 10.2019 2.9678 8.1615 0 14.8392-6.6776 14.8392-15.21 0-8.1614-6.6777-14.839-14.8392-14.839zm0 22.444c-2.9678 0-5.9357-1.2984-8.347-3.3387l.7419-2.9679v-.1854c.5565-3.1533 2.2259-8.5325 7.7905-8.5325 4.0808 0 7.4196 3.3388 7.4196 7.4195-.1855 4.2662-3.7097 7.605-7.605 7.605z" fill="#6fda44"/><path d="m187.095 14.654h-2.04v-.7419h5.008v.7419h-2.041v5.7501h-.741v-5.7501zm4.266-.7419h.742l2.226 3.5242 2.226-3.5242h.742v6.3065h-.742v-5.1936l-2.226 3.3387-2.226-3.3387v5.1936h-.742z" fill="#4b4b4b"/><path d="m55.418 70.0862v13.0532c0 1.884-.8074 3.7679-2.2877 4.979l-9.0162 8.0742c-1.2111 1.0765-2.9606 1.0765-4.1717 0l-9.0162-8.0742c-1.6149-1.2111-2.4223-3.095-2.4223-4.979v-13.0532z" fill="#00b5f5"/><path d="m47.3446 85.9652c0 .2691-.2692.4037-.4037.2691h-9.9583c-.1345 0-.4037-.1346-.4037-.2691v-.6729c0-.2691.2692-.4037.4037-.4037h9.8237c.2691 0 .4037.1345.4037.2691v.8075zm1.884-8.4782c-.1346 0-.4037 0-.5383 0l-3.6334 2.2878-2.6914-3.9027c-.2692-.1346-.5383-.1346-.8075 0l-2.6914 3.9027-3.6334-2.2878c-.1346-.1346-.4037-.1346-.5383 0-.1345 0-.2691.1346-.2691.2691l2.0185 6.0559c.1346.1346.2692.2691.4038.1346h10.0928c.1345 0 .4037 0 .4037-.1346l2.0185-6.0559c.1346-.1345.1346-.2691-.1345-.2691z" fill="#fff"/><path d="m67.457 78.9394h3.9351v9.8013h2.9148v-9.8013h3.935v-2.7386h-10.7849zm11.6594 3.6034c-.1458 3.4593 2.6233 6.3421 6.2668 6.4862h.7287c3.6436.1441 6.7041-2.4503 6.8499-6.0538 0-.1441 0-.2883 0-.4324.1457-3.4593-2.6234-6.342-6.2669-6.4862-.2915 0-.4372 0-.7287 0-3.6435-.1441-6.7041 2.4504-6.8498 6.0538zm3.0605 0c0-2.0179 1.6032-3.7476 3.6436-3.8917 2.0403 0 3.7892 1.5855 3.935 3.6034v.2883c.1457 1.8738-1.3117 3.6034-3.2063 3.7476-.1458 0-.2915 0-.4373 0-2.1861 0-3.935-1.5855-3.935-3.7476zm16.0316 6.3421v-4.3242h1.4574c2.4781.2883 4.5181-1.5855 4.8091-3.8917 0-.1441 0-.1441 0-.2883 0-2.162-1.311-4.1799-5.2463-4.1799-1.0202 0-3.2063 0-3.935 0v12.5399h2.9148zm1.3117-9.9455c.7288-.1442 1.6028.2882 1.7488 1.0089v.4324c0 .8649-.583 1.5856-1.4574 1.5856-.1457 0-.1457 0-.2914 0-.4373 0-.8745 0-1.3117-.1442v-2.8827zm13.9908 9.9455v-4.3242h1.021l3.206 4.3242h3.643l-3.789-4.9007c1.458-.7207 2.332-2.1621 2.186-3.6035 0-2.3062-1.311-4.0358-4.809-4.0358-.437 0-3.644 0-4.372 0v12.54zm1.312-9.9455c1.457 0 1.749.7207 1.749 1.4413 0 1.009-.875 1.4414-2.04 1.4414h-1.021v-2.8827zm6.558 9.9455h2.915l1.02-2.5945h5.101l1.021 2.5945h3.206l-5.393-12.54h-2.623zm6.559-8.9366 1.457 3.6035h-2.915zm6.995-1.0089h3.935v9.8013h2.915v-9.8013h3.935v-2.7386h-10.785zm12.534 9.9455h7.87v-2.7387h-4.955v-2.3062h4.226v-2.7386h-4.226v-2.162h4.664v-2.7386h-7.725zm10.639 0h.292 3.643c4.955 0 7.433-2.8828 7.433-6.4862 0-3.3152-2.04-6.1979-7.287-6.1979-.874 0-3.206 0-3.789 0h-.292zm4.081-9.9455c2.332 0 4.227 1.2972 4.227 3.6034 0 2.4503-1.604 3.7476-4.227 3.7476-.291 0-.729 0-1.02 0v-7.351z" fill="#00b5f5"/></svg>